<svg xmlns="http://www.w3.org/2000/svg" width="1164.0927734375" height="699.2916259765625" viewBox="-518.3450927734375 -348.4122009277344 1164.0927734375 699.2916259765625"><title>Neo4j Graph Visualization</title><desc>Created using Neo4j (http://www.neo4j.com/)</desc><g class="layer relationships"><g class="relationship" transform="translate(-112.91476220399521 118.0333524955736) rotate(217.0277705855416)"><path class="outline" fill="#A5ABB6" stroke="none" d="M 25 0.5 L 140.44069214108328 0.5 L 140.44069214108328 -0.5 L 25 -0.5 Z M 174.88600464108328 0.5 L 290.32669678216655 0.5 L 290.32669678216655 3.5 L 297.32669678216655 0 L 290.32669678216655 -3.5 L 290.32669678216655 -0.5 L 174.88600464108328 -0.5 Z"/><text text-anchor="middle" pointer-events="none" font-size="8px" fill="#000000" x="157.66334839108328" y="3" transform="rotate(180 157.66334839108328 0)" font-family="sans-serif">ORIGIN</text></g><g class="relationship" transform="translate(-112.91476220399521 118.0333524955736) rotate(389.4932208381124)"><path class="outline" fill="#A5ABB6" stroke="none" d="M 25 0.5 L 111.38754279257034 0.5 L 111.38754279257034 -0.5 L 25 -0.5 Z M 170.57504279257034 0.5 L 256.9625855851407 0.5 L 256.9625855851407 3.5 L 263.9625855851407 0 L 256.9625855851407 -3.5 L 256.9625855851407 -0.5 L 170.57504279257034 -0.5 Z"/><text text-anchor="middle" pointer-events="none" font-size="8px" fill="#000000" x="140.98129279257034" y="3" font-family="sans-serif">DESTINATION</text></g><g class="relationship" transform="translate(22.47722451614598 282.0391516038754) rotate(349.3945875270807)"><path class="outline" fill="#A5ABB6" stroke="none" d="M 25 0.5 L 25.97785282625695 0.5 L 25.97785282625695 -0.5 L 25 -0.5 Z M 85.16535282625695 0.5 L 86.1432056525139 0.5 L 86.1432056525139 3.5 L 93.1432056525139 0 L 86.1432056525139 -3.5 L 86.1432056525139 -0.5 L 85.16535282625695 -0.5 Z"/><text text-anchor="middle" pointer-events="none" font-size="8px" fill="#000000" x="55.57160282625695" y="3" font-family="sans-serif">DESTINATION</text></g><g class="relationship" transform="translate(22.47722451614598 282.0391516038754) rotate(266.57197347308)"><path class="outline" fill="#A5ABB6" stroke="none" d="M 25 0.5 L 74.4920720189843 0.5 L 74.4920720189843 -0.5 L 25 -0.5 Z M 108.9373845189843 0.5 L 158.4294565379686 0.5 L 158.4294565379686 3.5 L 165.4294565379686 0 L 158.4294565379686 -3.5 L 158.4294565379686 -0.5 L 108.9373845189843 -0.5 Z"/><text text-anchor="middle" pointer-events="none" font-size="8px" fill="#000000" x="91.7147282689843" y="3" transform="rotate(180 91.7147282689843 0)" font-family="sans-serif">ORIGIN</text></g><g class="relationship" transform="translate(242.12910710847552 147.44907764752574) rotate(193.50731526928627)"><path class="outline" fill="#A5ABB6" stroke="none" d="M 25 0.5 L 85.71166880761828 0.5 L 85.71166880761828 -0.5 L 25 -0.5 Z M 144.89916880761828 0.5 L 205.61083761523656 0.5 L 205.61083761523656 3.5 L 212.61083761523656 0 L 205.61083761523656 -3.5 L 205.61083761523656 -0.5 L 144.89916880761828 -0.5 Z"/><text text-anchor="middle" pointer-events="none" font-size="8px" fill="#000000" x="115.30541880761828" y="3" transform="rotate(180 115.30541880761828 0)" font-family="sans-serif">DESTINATION</text></g><g class="relationship" transform="translate(242.12910710847552 147.44907764752574) rotate(326.4675615373056)"><path class="outline" fill="#A5ABB6" stroke="none" d="M 25 0.5 L 82.32785289465146 0.5 L 82.32785289465146 -0.5 L 25 -0.5 Z M 116.77316539465146 0.5 L 174.1010182893029 0.5 L 174.1010182893029 3.5 L 181.1010182893029 0 L 174.1010182893029 -3.5 L 174.1010182893029 -0.5 L 116.77316539465146 -0.5 Z"/><text text-anchor="middle" pointer-events="none" font-size="8px" fill="#000000" x="99.55050914465146" y="3" font-family="sans-serif">ORIGIN</text></g><g class="relationship" transform="translate(451.8073044415372 165.8279484715437) rotate(254.01549512886453)"><path class="outline" fill="#A5ABB6" stroke="none" d="M 25 0.5 L 48.05189383100637 0.5 L 48.05189383100637 -0.5 L 25 -0.5 Z M 82.49720633100637 0.5 L 105.54910016201273 0.5 L 105.54910016201273 3.5 L 112.54910016201273 0 L 105.54910016201273 -3.5 L 105.54910016201273 -0.5 L 82.49720633100637 -0.5 Z"/><text text-anchor="middle" pointer-events="none" font-size="8px" fill="#000000" x="65.27455008100637" y="3" transform="rotate(180 65.27455008100637 0)" font-family="sans-serif">ORIGIN</text></g><g class="relationship" transform="translate(451.8073044415372 165.8279484715437) rotate(303.25160377407985)"><path class="outline" fill="#A5ABB6" stroke="none" d="M 25 0.5 L 57.54727013618641 0.5 L 57.54727013618641 -0.5 L 25 -0.5 Z M 116.73477013618641 0.5 L 149.28204027237283 0.5 L 149.28204027237283 3.5 L 156.28204027237283 0 L 149.28204027237283 -3.5 L 149.28204027237283 -0.5 L 116.73477013618641 -0.5 Z"/><text text-anchor="middle" pointer-events="none" font-size="8px" fill="#000000" x="87.14102013618641" y="3" font-family="sans-serif">DESTINATION</text></g><g class="relationship" transform="translate(143.3220628937909 161.01137418033585) rotate(452.721669866181)"><path class="outline" fill="#A5ABB6" stroke="none" d="M 25 0.5 L 27.418865915778532 0.5 L 27.418865915778532 -0.5 L 25 -0.5 Z M 64.97745966577853 0.5 L 67.39632558155706 0.5 L 67.39632558155706 3.5 L 74.39632558155706 0 L 67.39632558155706 -3.5 L 67.39632558155706 -0.5 L 64.97745966577853 -0.5 Z"/><text text-anchor="middle" pointer-events="none" font-size="8px" fill="#000000" x="46.19816279077853" y="3" transform="rotate(180 46.19816279077853 0)" font-family="sans-serif">DESTI…</text></g><g class="relationship" transform="translate(143.3220628937909 161.01137418033585) rotate(207.57684970771447)"><path class="outline" fill="#A5ABB6" stroke="none" d="M 25 0.5 L 53.86719613772071 0.5 L 53.86719613772071 -0.5 L 25 -0.5 Z M 88.31250863772071 0.5 L 117.17970477544142 0.5 L 117.17970477544142 3.5 L 124.17970477544142 0 L 117.17970477544142 -3.5 L 117.17970477544142 -0.5 L 88.31250863772071 -0.5 Z"/><text text-anchor="middle" pointer-events="none" font-size="8px" fill="#000000" x="71.08985238772071" y="3" transform="rotate(180 71.08985238772071 0)" font-family="sans-serif">ORIGIN</text></g><g class="relationship" transform="translate(181.7672752322105 70.10920139726969) rotate(532.7075840050891)"><path class="outline" fill="#A5ABB6" stroke="none" d="M 25 0.5 L 52.94051714995895 0.5 L 52.94051714995895 -0.5 L 25 -0.5 Z M 112.12801714995895 0.5 L 140.0685342999179 0.5 L 140.0685342999179 3.5 L 147.0685342999179 0 L 140.0685342999179 -3.5 L 140.0685342999179 -0.5 L 112.12801714995895 -0.5 Z"/><text text-anchor="middle" pointer-events="none" font-size="8px" fill="#000000" x="82.53426714995895" y="3" transform="rotate(180 82.53426714995895 0)" font-family="sans-serif">DESTINATION</text></g><g class="relationship" transform="translate(181.7672752322105 70.10920139726969) rotate(351.0622896523423)"><path class="outline" fill="#A5ABB6" stroke="none" d="M 25 0.5 L 96.78520373438344 0.5 L 96.78520373438344 -0.5 L 25 -0.5 Z M 131.23051623438346 0.5 L 203.0157199687669 0.5 L 203.0157199687669 3.5 L 210.0157199687669 0 L 203.0157199687669 -3.5 L 203.0157199687669 -0.5 L 131.23051623438346 -0.5 Z"/><text text-anchor="middle" pointer-events="none" font-size="8px" fill="#000000" x="114.00785998438344" y="3" font-family="sans-serif">ORIGIN</text></g><g class="relationship" transform="translate(278.1533323374291 55.04407796099138) rotate(484.211885650574)"><path class="outline" fill="#A5ABB6" stroke="none" d="M 25 0.5 L 103.37676794458733 0.5 L 103.37676794458733 -0.5 L 25 -0.5 Z M 137.82208044458733 0.5 L 216.19884838917466 0.5 L 216.19884838917466 3.5 L 223.19884838917466 0 L 216.19884838917466 -3.5 L 216.19884838917466 -0.5 L 137.82208044458733 -0.5 Z"/><text text-anchor="middle" pointer-events="none" font-size="8px" fill="#000000" x="120.59942419458733" y="3" transform="rotate(180 120.59942419458733 0)" font-family="sans-serif">ORIGIN</text></g><g class="relationship" transform="translate(278.1533323374291 55.04407796099138) rotate(244.27156306143445)"><path class="outline" fill="#A5ABB6" stroke="none" d="M 25 0.5 L 83.5111292107807 0.5 L 83.5111292107807 -0.5 L 25 -0.5 Z M 142.6986292107807 0.5 L 201.2097584215614 0.5 L 201.2097584215614 3.5 L 208.2097584215614 0 L 201.2097584215614 -3.5 L 201.2097584215614 -0.5 L 142.6986292107807 -0.5 Z"/><text text-anchor="middle" pointer-events="none" font-size="8px" fill="#000000" x="113.1048792107807" y="3" transform="rotate(180 113.1048792107807 0)" font-family="sans-serif">DESTINATION</text></g><g class="relationship" transform="translate(349.19956999196455 -130.69883886690178) rotate(188.04365451390805)"><path class="outline" fill="#A5ABB6" stroke="none" d="M 25 0.5 L 53.90418392778861 0.5 L 53.90418392778861 -0.5 L 25 -0.5 Z M 113.09168392778861 0.5 L 141.99586785557722 0.5 L 141.99586785557722 3.5 L 148.99586785557722 0 L 141.99586785557722 -3.5 L 141.99586785557722 -0.5 L 113.09168392778861 -0.5 Z"/><text text-anchor="middle" pointer-events="none" font-size="8px" fill="#000000" x="83.49793392778861" y="3" transform="rotate(180 83.49793392778861 0)" font-family="sans-serif">DESTINATION</text></g><g class="relationship" transform="translate(349.19956999196455 -130.69883886690178) rotate(428.4963882183123)"><path class="outline" fill="#A5ABB6" stroke="none" d="M 25 0.5 L 67.57099984504075 0.5 L 67.57099984504075 -0.5 L 25 -0.5 Z M 102.01631234504075 0.5 L 144.5873121900815 0.5 L 144.5873121900815 3.5 L 151.5873121900815 0 L 144.5873121900815 -3.5 L 144.5873121900815 -0.5 L 102.01631234504075 -0.5 Z"/><text text-anchor="middle" pointer-events="none" font-size="8px" fill="#000000" x="84.79365609504075" y="3" font-family="sans-serif">ORIGIN</text></g><g class="relationship" transform="translate(550.3428278970958 162.91329596128304) rotate(223.47009769003836)"><path class="outline" fill="#A5ABB6" stroke="none" d="M 25 0.5 L 73.26048676774938 0.5 L 73.26048676774938 -0.5 L 25 -0.5 Z M 107.70579926774938 0.5 L 155.96628603549877 0.5 L 155.96628603549877 3.5 L 162.96628603549877 0 L 155.96628603549877 -3.5 L 155.96628603549877 -0.5 L 107.70579926774938 -0.5 Z"/><text text-anchor="middle" pointer-events="none" font-size="8px" fill="#000000" x="90.48314301774938" y="3" transform="rotate(180 90.48314301774938 0)" font-family="sans-serif">ORIGIN</text></g><g class="relationship" transform="translate(550.3428278970958 162.91329596128304) rotate(270.33310376002794)"><path class="outline" fill="#A5ABB6" stroke="none" d="M 25 0.5 L 41.250619315312406 0.5 L 41.250619315312406 -0.5 L 25 -0.5 Z M 100.4381193153124 0.5 L 116.68873863062481 0.5 L 116.68873863062481 3.5 L 123.68873863062481 0 L 116.68873863062481 -3.5 L 116.68873863062481 -0.5 L 100.4381193153124 -0.5 Z"/><text text-anchor="middle" pointer-events="none" font-size="8px" fill="#000000" x="70.8443693153124" y="3" font-family="sans-serif">DESTINATION</text></g><g class="relationship" transform="translate(616.7476708288297 89.30570610417647) rotate(195.35882682670626)"><path class="outline" fill="#A5ABB6" stroke="none" d="M 25 0.5 L 84.44234683881099 0.5 L 84.44234683881099 -0.5 L 25 -0.5 Z M 118.88765933881099 0.5 L 178.33000617762198 0.5 L 178.33000617762198 3.5 L 185.33000617762198 0 L 178.33000617762198 -3.5 L 178.33000617762198 -0.5 L 118.88765933881099 -0.5 Z"/><text text-anchor="middle" pointer-events="none" font-size="8px" fill="#000000" x="101.66500308881099" y="3" transform="rotate(180 101.66500308881099 0)" font-family="sans-serif">ORIGIN</text></g><g class="relationship" transform="translate(616.7476708288297 89.30570610417647) rotate(228.88044453161922)"><path class="outline" fill="#A5ABB6" stroke="none" d="M 25 0.5 L 27.55128259029526 0.5 L 27.55128259029526 -0.5 L 25 -0.5 Z M 65.10987634029526 0.5 L 67.66115893059052 0.5 L 67.66115893059052 3.5 L 74.66115893059052 0 L 67.66115893059052 -3.5 L 67.66115893059052 -0.5 L 65.10987634029526 -0.5 Z"/><text text-anchor="middle" pointer-events="none" font-size="8px" fill="#000000" x="46.33057946529526" y="3" transform="rotate(180 46.33057946529526 0)" font-family="sans-serif">DESTI…</text></g><g class="relationship" transform="translate(460.5686906825901 -114.83987477611358) rotate(467.44286815371925)"><path class="outline" fill="#A5ABB6" stroke="none" d="M 25 0.5 L 57.07312666956565 0.5 L 57.07312666956565 -0.5 L 25 -0.5 Z M 91.51843916956565 0.5 L 123.5915658391313 0.5 L 123.5915658391313 3.5 L 130.5915658391313 0 L 123.5915658391313 -3.5 L 123.5915658391313 -0.5 L 91.51843916956565 -0.5 Z"/><text text-anchor="middle" pointer-events="none" font-size="8px" fill="#000000" x="74.29578291956565" y="3" transform="rotate(180 74.29578291956565 0)" font-family="sans-serif">ORIGIN</text></g><g class="relationship" transform="translate(460.5686906825901 -114.83987477611358) rotate(414.92116113089946)"><path class="outline" fill="#A5ABB6" stroke="none" d="M 25 0.5 L 45.76312527654501 0.5 L 45.76312527654501 -0.5 L 25 -0.5 Z M 104.95062527654501 0.5 L 125.71375055309002 0.5 L 125.71375055309002 3.5 L 132.71375055309002 0 L 125.71375055309002 -3.5 L 125.71375055309002 -0.5 L 104.95062527654501 -0.5 Z"/><text text-anchor="middle" pointer-events="none" font-size="8px" fill="#000000" x="75.35687527654501" y="3" font-family="sans-serif">DESTINATION</text></g><g class="relationship" transform="translate(216.94491292731468 -21.841901448010766) rotate(511.0670254520534)"><path class="outline" fill="#A5ABB6" stroke="none" d="M 25 0.5 L 84.51227618601874 0.5 L 84.51227618601874 -0.5 L 25 -0.5 Z M 143.69977618601874 0.5 L 203.21205237203748 0.5 L 203.21205237203748 3.5 L 210.21205237203748 0 L 203.21205237203748 -3.5 L 203.21205237203748 -0.5 L 143.69977618601874 -0.5 Z"/><text text-anchor="middle" pointer-events="none" font-size="8px" fill="#000000" x="114.10602618601874" y="3" transform="rotate(180 114.10602618601874 0)" font-family="sans-serif">DESTINATION</text></g><g class="relationship" transform="translate(216.94491292731468 -21.841901448010766) rotate(375.71861984262785)"><path class="outline" fill="#A5ABB6" stroke="none" d="M 25 0.5 L 81.59591418866525 0.5 L 81.59591418866525 -0.5 L 25 -0.5 Z M 116.04122668866525 0.5 L 172.6371408773305 0.5 L 172.6371408773305 3.5 L 179.6371408773305 0 L 172.6371408773305 -3.5 L 172.6371408773305 -0.5 L 116.04122668866525 -0.5 Z"/><text text-anchor="middle" pointer-events="none" font-size="8px" fill="#000000" x="98.81857043866525" y="3" font-family="sans-serif">ORIGIN</text></g><g class="relationship" transform="translate(558.9916036418197 -103.68160969987309) rotate(496.5791320436959)"><path class="outline" fill="#A5ABB6" stroke="none" d="M 25 0.5 L 79.13782969236382 0.5 L 79.13782969236382 -0.5 L 25 -0.5 Z M 113.58314219236382 0.5 L 167.72097188472765 0.5 L 167.72097188472765 3.5 L 174.72097188472765 0 L 167.72097188472765 -3.5 L 167.72097188472765 -0.5 L 113.58314219236382 -0.5 Z"/><text text-anchor="middle" pointer-events="none" font-size="8px" fill="#000000" x="96.36048594236382" y="3" transform="rotate(180 96.36048594236382 0)" font-family="sans-serif">ORIGIN</text></g><g class="relationship" transform="translate(558.9916036418197 -103.68160969987309) rotate(453.77719043917114)"><path class="outline" fill="#A5ABB6" stroke="none" d="M 25 0.5 L 25.988930918439237 0.5 L 25.988930918439237 -0.5 L 25 -0.5 Z M 85.17643091843924 0.5 L 86.16536183687847 0.5 L 86.16536183687847 3.5 L 93.16536183687847 0 L 86.16536183687847 -3.5 L 86.16536183687847 -0.5 L 85.17643091843924 -0.5 Z"/><text text-anchor="middle" pointer-events="none" font-size="8px" fill="#000000" x="55.58268091843924" y="3" transform="rotate(180 55.58268091843924 0)" font-family="sans-serif">DESTINATION</text></g><g class="relationship" transform="translate(-318.209247232728 -213.2781502779294) rotate(470.7684089538186)"><path class="outline" fill="#A5ABB6" stroke="none" d="M 25 0.5 L 52.647706368469144 0.5 L 52.647706368469144 -0.5 L 25 -0.5 Z M 87.09301886846914 0.5 L 114.74072523693829 0.5 L 114.74072523693829 3.5 L 121.74072523693829 0 L 114.74072523693829 -3.5 L 114.74072523693829 -0.5 L 87.09301886846914 -0.5 Z"/><text text-anchor="middle" pointer-events="none" font-size="8px" fill="#000000" x="69.87036261846914" y="3" transform="rotate(180 69.87036261846914 0)" font-family="sans-serif">ORIGIN</text></g><g class="relationship" transform="translate(-318.209247232728 -213.2781502779294) rotate(331.51765312576066)"><path class="outline" fill="#A5ABB6" stroke="none" d="M 25 0.5 L 77.72015638734666 0.5 L 77.72015638734666 -0.5 L 25 -0.5 Z M 136.90765638734666 0.5 L 189.62781277469333 0.5 L 189.62781277469333 3.5 L 196.62781277469333 0 L 189.62781277469333 -3.5 L 189.62781277469333 -0.5 L 136.90765638734666 -0.5 Z"/><text text-anchor="middle" pointer-events="none" font-size="8px" fill="#000000" x="107.31390638734666" y="3" font-family="sans-serif">DESTINATION</text></g><g class="relationship" transform="translate(31.124721529389614 -137.55159366576456) rotate(229.5758144017641)"><path class="outline" fill="#A5ABB6" stroke="none" d="M 25 0.5 L 86.06204733501392 0.5 L 86.06204733501392 -0.5 L 25 -0.5 Z M 145.24954733501392 0.5 L 206.31159467002783 0.5 L 206.31159467002783 3.5 L 213.31159467002783 0 L 206.31159467002783 -3.5 L 206.31159467002783 -0.5 L 145.24954733501392 -0.5 Z"/><text text-anchor="middle" pointer-events="none" font-size="8px" fill="#000000" x="115.65579733501392" y="3" transform="rotate(180 115.65579733501392 0)" font-family="sans-serif">DESTINATION</text></g><g class="relationship" transform="translate(31.124721529389614 -137.55159366576456) rotate(454.98893411532254)"><path class="outline" fill="#A5ABB6" stroke="none" d="M 25 0.5 L 94.46474199990898 0.5 L 94.46474199990898 -0.5 L 25 -0.5 Z M 128.910054499909 0.5 L 198.37479649981796 0.5 L 198.37479649981796 3.5 L 205.37479649981796 0 L 198.37479649981796 -3.5 L 198.37479649981796 -0.5 L 128.910054499909 -0.5 Z"/><text text-anchor="middle" pointer-events="none" font-size="8px" fill="#000000" x="111.68739824990898" y="3" transform="rotate(180 111.68739824990898 0)" font-family="sans-serif">ORIGIN</text></g><g class="relationship" transform="translate(-223.5325724381081 -184.68362900810155) rotate(503.4869475120289)"><path class="outline" fill="#A5ABB6" stroke="none" d="M 25 0.5 L 70.54634391569323 0.5 L 70.54634391569323 -0.5 L 25 -0.5 Z M 104.99165641569323 0.5 L 150.53800033138646 0.5 L 150.53800033138646 3.5 L 157.53800033138646 0 L 150.53800033138646 -3.5 L 150.53800033138646 -0.5 L 104.99165641569323 -0.5 Z"/><text text-anchor="middle" pointer-events="none" font-size="8px" fill="#000000" x="87.76900016569323" y="3" transform="rotate(180 87.76900016569323 0)" font-family="sans-serif">ORIGIN</text></g><g class="relationship" transform="translate(-223.5325724381081 -184.68362900810155) rotate(306.7088843497253)"><path class="outline" fill="#A5ABB6" stroke="none" d="M 25 0.5 L 50.658908196523555 0.5 L 50.658908196523555 -0.5 L 25 -0.5 Z M 109.84640819652356 0.5 L 135.5053163930471 0.5 L 135.5053163930471 3.5 L 142.5053163930471 0 L 135.5053163930471 -3.5 L 135.5053163930471 -0.5 L 109.84640819652356 -0.5 Z"/><text text-anchor="middle" pointer-events="none" font-size="8px" fill="#000000" x="80.25265819652356" y="3" font-family="sans-serif">DESTINATION</text></g><g class="relationship" transform="translate(-66.40635773528038 -146.0957044688407) rotate(251.75159090124595)"><path class="outline" fill="#A5ABB6" stroke="none" d="M 25 0.5 L 57.920601760528726 0.5 L 57.920601760528726 -0.5 L 25 -0.5 Z M 117.10810176052873 0.5 L 150.02870352105745 0.5 L 150.02870352105745 3.5 L 157.02870352105745 0 L 150.02870352105745 -3.5 L 150.02870352105745 -0.5 L 117.10810176052873 -0.5 Z"/><text text-anchor="middle" pointer-events="none" font-size="8px" fill="#000000" x="87.51435176052873" y="3" transform="rotate(180 87.51435176052873 0)" font-family="sans-serif">DESTINATION</text></g><g class="relationship" transform="translate(-66.40635773528038 -146.0957044688407) rotate(431.9671236301995)"><path class="outline" fill="#A5ABB6" stroke="none" d="M 25 0.5 L 104.44896067387792 0.5 L 104.44896067387792 -0.5 L 25 -0.5 Z M 138.89427317387793 0.5 L 218.34323384775584 0.5 L 218.34323384775584 3.5 L 225.34323384775584 0 L 218.34323384775584 -3.5 L 218.34323384775584 -0.5 L 138.89427317387793 -0.5 Z"/><text text-anchor="middle" pointer-events="none" font-size="8px" fill="#000000" x="121.67161692387792" y="3" font-family="sans-serif">ORIGIN</text></g><g class="relationship" transform="translate(-449.8290449863601 -185.22213051731853) rotate(413.90223929978964)"><path class="outline" fill="#A5ABB6" stroke="none" d="M 25 0.5 L 46.819388354785744 0.5 L 46.819388354785744 -0.5 L 25 -0.5 Z M 81.26470085478574 0.5 L 103.08408920957149 0.5 L 103.08408920957149 3.5 L 110.08408920957149 0 L 103.08408920957149 -3.5 L 103.08408920957149 -0.5 L 81.26470085478574 -0.5 Z"/><text text-anchor="middle" pointer-events="none" font-size="8px" fill="#000000" x="64.04204460478574" y="3" font-family="sans-serif">ORIGIN</text></g><g class="relationship" transform="translate(-449.8290449863601 -185.22213051731853) rotate(387.2428983682683)"><path class="outline" fill="#A5ABB6" stroke="none" d="M 25 0.5 L 66.50096428762835 0.5 L 66.50096428762835 -0.5 L 25 -0.5 Z M 125.68846428762835 0.5 L 167.1894285752567 0.5 L 167.1894285752567 3.5 L 174.1894285752567 0 L 167.1894285752567 -3.5 L 167.1894285752567 -0.5 L 125.68846428762835 -0.5 Z"/><text text-anchor="middle" pointer-events="none" font-size="8px" fill="#000000" x="96.09471428762835" y="3" font-family="sans-serif">DESTINATION</text></g><g class="relationship" transform="translate(-129.4061751580971 -69.71110339461845) rotate(189.6338425140284)"><path class="outline" fill="#A5ABB6" stroke="none" d="M 25 0.5 L 51.96683256590936 0.5 L 51.96683256590936 -0.5 L 25 -0.5 Z M 86.41214506590936 0.5 L 113.37897763181871 0.5 L 113.37897763181871 3.5 L 120.37897763181871 0 L 113.37897763181871 -3.5 L 113.37897763181871 -0.5 L 86.41214506590936 -0.5 Z"/><text text-anchor="middle" pointer-events="none" font-size="8px" fill="#000000" x="69.18948881590936" y="3" transform="rotate(180 69.18948881590936 0)" font-family="sans-serif">ORIGIN</text></g><g class="relationship" transform="translate(-129.4061751580971 -69.71110339461845) rotate(409.00676193129686)"><path class="outline" fill="#A5ABB6" stroke="none" d="M 25 0.5 L 73.99708079638047 0.5 L 73.99708079638047 -0.5 L 25 -0.5 Z M 133.1845807963805 0.5 L 182.18166159276095 0.5 L 182.18166159276095 3.5 L 189.18166159276095 0 L 182.18166159276095 -3.5 L 182.18166159276095 -0.5 L 133.1845807963805 -0.5 Z"/><text text-anchor="middle" pointer-events="none" font-size="8px" fill="#000000" x="103.59083079638047" y="3" font-family="sans-serif">DESTINATION</text></g><g class="relationship" transform="translate(64.13202809201398 -319.4121947366479) rotate(539.86483835229)"><path class="outline" fill="#A5ABB6" stroke="none" d="M 25 0.5 L 73.04679837683105 0.5 L 73.04679837683105 -0.5 L 25 -0.5 Z M 107.49211087683105 0.5 L 155.5389092536621 0.5 L 155.5389092536621 3.5 L 162.5389092536621 0 L 155.5389092536621 -3.5 L 155.5389092536621 -0.5 L 107.49211087683105 -0.5 Z"/><text text-anchor="middle" pointer-events="none" font-size="8px" fill="#000000" x="90.26945462683105" y="3" transform="rotate(180 90.26945462683105 0)" font-family="sans-serif">ORIGIN</text></g><g class="relationship" transform="translate(64.13202809201398 -319.4121947366479) rotate(415.54323043211764)"><path class="outline" fill="#A5ABB6" stroke="none" d="M 25 0.5 L 66.57629893569222 0.5 L 66.57629893569222 -0.5 L 25 -0.5 Z M 125.76379893569222 0.5 L 167.34009787138444 0.5 L 167.34009787138444 3.5 L 174.34009787138444 0 L 167.34009787138444 -3.5 L 167.34009787138444 -0.5 L 125.76379893569222 -0.5 Z"/><text text-anchor="middle" pointer-events="none" font-size="8px" fill="#000000" x="96.17004893569222" y="3" font-family="sans-serif">DESTINATION</text></g><g class="relationship" transform="translate(-94.4340467821057 21.732837004348315) rotate(212.99623182291162)"><path class="outline" fill="#A5ABB6" stroke="none" d="M 25 0.5 L 73.20142185310522 0.5 L 73.20142185310522 -0.5 L 25 -0.5 Z M 132.38892185310522 0.5 L 180.59034370621043 0.5 L 180.59034370621043 3.5 L 187.59034370621043 0 L 180.59034370621043 -3.5 L 180.59034370621043 -0.5 L 132.38892185310522 -0.5 Z"/><text text-anchor="middle" pointer-events="none" font-size="8px" fill="#000000" x="102.79517185310522" y="3" transform="rotate(180 102.79517185310522 0)" font-family="sans-serif">DESTINATION</text></g><g class="relationship" transform="translate(-94.4340467821057 21.732837004348315) rotate(393.64036639695433)"><path class="outline" fill="#A5ABB6" stroke="none" d="M 25 0.5 L 42.653114095489514 0.5 L 42.653114095489514 -0.5 L 25 -0.5 Z M 77.09842659548951 0.5 L 94.75154069097903 0.5 L 94.75154069097903 3.5 L 101.75154069097903 0 L 94.75154069097903 -3.5 L 94.75154069097903 -0.5 L 77.09842659548951 -0.5 Z"/><text text-anchor="middle" pointer-events="none" font-size="8px" fill="#000000" x="59.875770345489514" y="3" font-family="sans-serif">ORIGIN</text></g><g class="relationship" transform="translate(-247.12133817746744 -280.024478264873) rotate(481.11836638014313)"><path class="outline" fill="#A5ABB6" stroke="none" d="M 25 0.5 L 98.39408662102767 0.5 L 98.39408662102767 -0.5 L 25 -0.5 Z M 132.83939912102767 0.5 L 206.23348574205534 0.5 L 206.23348574205534 3.5 L 213.23348574205534 0 L 206.23348574205534 -3.5 L 206.23348574205534 -0.5 L 132.83939912102767 -0.5 Z"/><text text-anchor="middle" pointer-events="none" font-size="8px" fill="#000000" x="115.61674287102767" y="3" transform="rotate(180 115.61674287102767 0)" font-family="sans-serif">ORIGIN</text></g><g class="relationship" transform="translate(-247.12133817746744 -280.024478264873) rotate(342.52606785503235)"><path class="outline" fill="#A5ABB6" stroke="none" d="M 25 0.5 L 31.756333137363285 0.5 L 31.756333137363285 -0.5 L 25 -0.5 Z M 90.94383313736328 0.5 L 97.70016627472657 0.5 L 97.70016627472657 3.5 L 104.70016627472657 0 L 97.70016627472657 -3.5 L 97.70016627472657 -0.5 L 90.94383313736328 -0.5 Z"/><text text-anchor="middle" pointer-events="none" font-size="8px" fill="#000000" x="61.350083137363285" y="3" font-family="sans-serif">DESTINATION</text></g><g class="relationship" transform="translate(-340.3241627801666 -309.02517396428857) rotate(457.31842908897346)"><path class="outline" fill="#A5ABB6" stroke="none" d="M 25 0.5 L 96.71037525022483 0.5 L 96.71037525022483 -0.5 L 25 -0.5 Z M 131.15568775022484 0.5 L 202.86606300044966 0.5 L 202.86606300044966 3.5 L 209.86606300044966 0 L 202.86606300044966 -3.5 L 202.86606300044966 -0.5 L 131.15568775022484 -0.5 Z"/><text text-anchor="middle" pointer-events="none" font-size="8px" fill="#000000" x="113.93303150022483" y="3" transform="rotate(180 113.93303150022483 0)" font-family="sans-serif">ORIGIN</text></g><g class="relationship" transform="translate(-340.3241627801666 -309.02517396428857) rotate(357.3751083793014)"><path class="outline" fill="#A5ABB6" stroke="none" d="M 25 0.5 L 75.4790697986029 0.5 L 75.4790697986029 -0.5 L 25 -0.5 Z M 134.6665697986029 0.5 L 185.1456395972058 0.5 L 185.1456395972058 3.5 L 192.1456395972058 0 L 185.1456395972058 -3.5 L 185.1456395972058 -0.5 L 134.6665697986029 -0.5 Z"/><text text-anchor="middle" pointer-events="none" font-size="8px" fill="#000000" x="105.0728197986029" y="3" font-family="sans-serif">DESTINATION</text></g><g class="relationship" transform="translate(-189.83744500581184 39.06631134126691) rotate(238.08578449196477)"><path class="outline" fill="#A5ABB6" stroke="none" d="M 25 0.5 L 45.3112858973238 0.5 L 45.3112858973238 -0.5 L 25 -0.5 Z M 104.4987858973238 0.5 L 124.8100717946476 0.5 L 124.8100717946476 3.5 L 131.8100717946476 0 L 124.8100717946476 -3.5 L 124.8100717946476 -0.5 L 104.4987858973238 -0.5 Z"/><text text-anchor="middle" pointer-events="none" font-size="8px" fill="#000000" x="74.9050358973238" y="3" transform="rotate(180 74.9050358973238 0)" font-family="sans-serif">DESTINATION</text></g><g class="relationship" transform="translate(-189.83744500581184 39.06631134126691) rotate(374.74578397243647)"><path class="outline" fill="#A5ABB6" stroke="none" d="M 25 0.5 L 83.16284947521605 0.5 L 83.16284947521605 -0.5 L 25 -0.5 Z M 117.60816197521605 0.5 L 175.7710114504321 0.5 L 175.7710114504321 3.5 L 182.7710114504321 0 L 175.7710114504321 -3.5 L 175.7710114504321 -0.5 L 117.60816197521605 -0.5 Z"/><text text-anchor="middle" pointer-events="none" font-size="8px" fill="#000000" x="100.38550572521605" y="3" font-family="sans-serif">ORIGIN</text></g><g class="relationship" transform="translate(-489.34508877435974 -4.611750639573801) rotate(329.03659966880605)"><path class="outline" fill="#A5ABB6" stroke="none" d="M 25 0.5 L 48.72537264754118 0.5 L 48.72537264754118 -0.5 L 25 -0.5 Z M 83.17068514754118 0.5 L 106.89605779508236 0.5 L 106.89605779508236 3.5 L 113.89605779508236 0 L 106.89605779508236 -3.5 L 106.89605779508236 -0.5 L 83.17068514754118 -0.5 Z"/><text text-anchor="middle" pointer-events="none" font-size="8px" fill="#000000" x="65.94802889754118" y="3" font-family="sans-serif">ORIGIN</text></g><g class="relationship" transform="translate(-489.34508877435974 -4.611750639573801) rotate(378.77555268157823)"><path class="outline" fill="#A5ABB6" stroke="none" d="M 25 0.5 L 68.38348768545627 0.5 L 68.38348768545627 -0.5 L 25 -0.5 Z M 127.57098768545627 0.5 L 170.95447537091255 0.5 L 170.95447537091255 3.5 L 177.95447537091255 0 L 170.95447537091255 -3.5 L 170.95447537091255 -0.5 L 127.57098768545627 -0.5 Z"/><text text-anchor="middle" pointer-events="none" font-size="8px" fill="#000000" x="97.97723768545627" y="3" font-family="sans-serif">DESTINATION</text></g><g class="relationship" transform="translate(-208.87490209541474 135.9216612197895) rotate(220.41793062688726)"><path class="outline" fill="#A5ABB6" stroke="none" d="M 25 0.5 L 26.906697511667808 0.5 L 26.906697511667808 -0.5 L 25 -0.5 Z M 82.0941975116678 0.5 L 84.00089502333562 0.5 L 84.00089502333562 3.5 L 91.00089502333562 0 L 84.00089502333562 -3.5 L 84.00089502333562 -0.5 L 82.0941975116678 -0.5 Z"/><text text-anchor="middle" pointer-events="none" font-size="8px" fill="#000000" x="54.50044751166781" y="3" transform="rotate(180 54.50044751166781 0)" font-family="sans-serif">DESTINATI…</text></g><g class="relationship" transform="translate(-208.87490209541474 135.9216612197895) rotate(348.69554312668333)"><path class="outline" fill="#A5ABB6" stroke="none" d="M 25 0.5 L 91.43601876831953 0.5 L 91.43601876831953 -0.5 L 25 -0.5 Z M 125.88133126831953 0.5 L 192.31735003663906 0.5 L 192.31735003663906 3.5 L 199.31735003663906 0 L 192.31735003663906 -3.5 L 192.31735003663906 -0.5 L 125.88133126831953 -0.5 Z"/><text text-anchor="middle" pointer-events="none" font-size="8px" fill="#000000" x="108.65867501831953" y="3" font-family="sans-serif">ORIGIN</text></g><g class="relationship" transform="translate(-451.0074068950341 86.39568968591725) rotate(296.4326045168698)"><path class="outline" fill="#A5ABB6" stroke="none" d="M 25 0.5 L 69.99518004106845 0.5 L 69.99518004106845 -0.5 L 25 -0.5 Z M 104.44049254106845 0.5 L 149.4356725821369 0.5 L 149.4356725821369 3.5 L 156.4356725821369 0 L 149.4356725821369 -3.5 L 149.4356725821369 -0.5 L 104.44049254106845 -0.5 Z"/><text text-anchor="middle" pointer-events="none" font-size="8px" fill="#000000" x="87.21783629106845" y="3" font-family="sans-serif">ORIGIN</text></g><g class="relationship" transform="translate(-451.0074068950341 86.39568968591725) rotate(350.52027970083225)"><path class="outline" fill="#A5ABB6" stroke="none" d="M 25 0.5 L 44.879512197974606 0.5 L 44.879512197974606 -0.5 L 25 -0.5 Z M 104.0670121979746 0.5 L 123.94652439594921 0.5 L 123.94652439594921 3.5 L 130.9465243959492 0 L 123.94652439594921 -3.5 L 123.94652439594921 -0.5 L 104.0670121979746 -0.5 Z"/><text text-anchor="middle" pointer-events="none" font-size="8px" fill="#000000" x="74.4732621979746" y="3" font-family="sans-serif">DESTINATION</text></g><g class="relationship" transform="translate(-157.68638720558164 218.4986295294621) rotate(228.51917775450647)"><path class="outline" fill="#A5ABB6" stroke="none" d="M 25 0.5 L 84.5842340640832 0.5 L 84.5842340640832 -0.5 L 25 -0.5 Z M 119.0295465640832 0.5 L 178.6137806281664 0.5 L 178.6137806281664 3.5 L 185.6137806281664 0 L 178.6137806281664 -3.5 L 178.6137806281664 -0.5 L 119.0295465640832 -0.5 Z"/><text text-anchor="middle" pointer-events="none" font-size="8px" fill="#000000" x="101.8068903140832" y="3" transform="rotate(180 101.8068903140832 0)" font-family="sans-serif">ORIGIN</text></g><g class="relationship" transform="translate(-157.68638720558164 218.4986295294621) rotate(323.13760122554817)"><path class="outline" fill="#A5ABB6" stroke="none" d="M 25 0.5 L 72.381489324738 0.5 L 72.381489324738 -0.5 L 25 -0.5 Z M 131.568989324738 0.5 L 178.950478649476 0.5 L 178.950478649476 3.5 L 185.950478649476 0 L 178.950478649476 -3.5 L 178.950478649476 -0.5 L 131.568989324738 -0.5 Z"/><text text-anchor="middle" pointer-events="none" font-size="8px" fill="#000000" x="101.975239324738" y="3" font-family="sans-serif">DESTINATION</text></g><g class="relationship" transform="translate(-368.9356642211499 143.67074679185671) rotate(269.659323227173)"><path class="outline" fill="#A5ABB6" stroke="none" d="M 25 0.5 L 89.15088056737906 0.5 L 89.15088056737906 -0.5 L 25 -0.5 Z M 123.59619306737906 0.5 L 187.74707363475812 0.5 L 187.74707363475812 3.5 L 194.74707363475812 0 L 187.74707363475812 -3.5 L 187.74707363475812 -0.5 L 123.59619306737906 -0.5 Z"/><text text-anchor="middle" pointer-events="none" font-size="8px" fill="#000000" x="106.37353681737906" y="3" transform="rotate(180 106.37353681737906 0)" font-family="sans-serif">ORIGIN</text></g><g class="relationship" transform="translate(-368.9356642211499 143.67074679185671) rotate(414.3495129512204)"><path class="outline" fill="#A5ABB6" stroke="none" d="M 25 0.5 L 74.78810202575406 0.5 L 74.78810202575406 -0.5 L 25 -0.5 Z M 133.97560202575406 0.5 L 183.7637040515081 0.5 L 183.7637040515081 3.5 L 190.7637040515081 0 L 183.7637040515081 -3.5 L 183.7637040515081 -0.5 L 133.97560202575406 -0.5 Z"/><text text-anchor="middle" pointer-events="none" font-size="8px" fill="#000000" x="104.38185202575406" y="3" font-family="sans-serif">DESTINATION</text></g><g class="relationship" transform="translate(-68.70310469099297 321.8793923248236) rotate(180.9462421200401)"><path class="outline" fill="#A5ABB6" stroke="none" d="M 25 0.5 L 54.1566536112602 0.5 L 54.1566536112602 -0.5 L 25 -0.5 Z M 113.3441536112602 0.5 L 142.5008072225204 0.5 L 142.5008072225204 3.5 L 149.5008072225204 0 L 142.5008072225204 -3.5 L 142.5008072225204 -0.5 L 113.3441536112602 -0.5 Z"/><text text-anchor="middle" pointer-events="none" font-size="8px" fill="#000000" x="83.7504036112602" y="3" transform="rotate(180 83.7504036112602 0)" font-family="sans-serif">DESTINATION</text></g><g class="relationship" transform="translate(-68.70310469099297 321.8793923248236) rotate(289.1386234506084)"><path class="outline" fill="#A5ABB6" stroke="none" d="M 25 0.5 L 100.96789006217831 0.5 L 100.96789006217831 -0.5 L 25 -0.5 Z M 135.4132025621783 0.5 L 211.38109262435663 0.5 L 211.38109262435663 3.5 L 218.38109262435663 0 L 211.38109262435663 -3.5 L 211.38109262435663 -0.5 L 135.4132025621783 -0.5 Z"/><text text-anchor="middle" pointer-events="none" font-size="8px" fill="#000000" x="118.19054631217831" y="3" font-family="sans-serif">ORIGIN</text></g><g class="relationship" transform="translate(-58.910098874117836 224.86450949833085) rotate(512.9400816979611)"><path class="outline" fill="#A5ABB6" stroke="none" d="M 25 0.5 L 70.3669723975515 0.5 L 70.3669723975515 -0.5 L 25 -0.5 Z M 129.5544723975515 0.5 L 174.921444795103 0.5 L 174.921444795103 3.5 L 181.921444795103 0 L 174.921444795103 -3.5 L 174.921444795103 -0.5 L 129.5544723975515 -0.5 Z"/><text text-anchor="middle" pointer-events="none" font-size="8px" fill="#000000" x="99.9607223975515" y="3" transform="rotate(180 99.9607223975515 0)" font-family="sans-serif">DESTINATION</text></g><g class="relationship" transform="translate(-58.910098874117836 224.86450949833085) rotate(297.77402602958745)"><path class="outline" fill="#A5ABB6" stroke="none" d="M 25 0.5 L 54.387670160611435 0.5 L 54.387670160611435 -0.5 L 25 -0.5 Z M 88.83298266061144 0.5 L 118.22065282122287 0.5 L 118.22065282122287 3.5 L 125.22065282122287 0 L 118.22065282122287 -3.5 L 118.22065282122287 -0.5 L 88.83298266061144 -0.5 Z"/><text text-anchor="middle" pointer-events="none" font-size="8px" fill="#000000" x="71.61032641061144" y="3" font-family="sans-serif">ORIGIN</text></g><g class="relationship" transform="translate(-31.756517346575844 -54.14849068443489) rotate(516.6006395439747)"><path class="outline" fill="#A5ABB6" stroke="none" d="M 25 0.5 L 111.51608792266597 0.5 L 111.51608792266597 -0.5 L 25 -0.5 Z M 170.70358792266597 0.5 L 257.21967584533195 0.5 L 257.21967584533195 3.5 L 264.21967584533195 0 L 257.21967584533195 -3.5 L 257.21967584533195 -0.5 L 170.70358792266597 -0.5 Z"/><text text-anchor="middle" pointer-events="none" font-size="8px" fill="#000000" x="141.10983792266597" y="3" transform="rotate(180 141.10983792266597 0)" font-family="sans-serif">DESTINATION</text></g><g class="relationship" transform="translate(-31.756517346575844 -54.14849068443489) rotate(334.1952902969192)"><path class="outline" fill="#A5ABB6" stroke="none" d="M 25 0.5 L 95.16981159473302 0.5 L 95.16981159473302 -0.5 L 25 -0.5 Z M 129.615124094733 0.5 L 199.78493568946604 0.5 L 199.78493568946604 3.5 L 206.78493568946604 0 L 199.78493568946604 -3.5 L 199.78493568946604 -0.5 L 129.615124094733 -0.5 Z"/><text text-anchor="middle" pointer-events="none" font-size="8px" fill="#000000" x="112.39246784473302" y="3" font-family="sans-serif">ORIGIN</text></g></g><g class="layer nodes"><g class="node" aria-label="graph-node15" transform="translate(-370.2422575410015,-76.07244237435232)"><circle class="outline" cx="0" cy="0" r="25" fill="#8DCC93" stroke="#5db665" stroke-width="2px"/><text class="caption" text-anchor="middle" pointer-events="none" x="0" y="5" font-size="10px" fill="#2A2C34" font-family="sans-serif"> LAX</text></g><g class="node" aria-label="graph-node80" transform="translate(551.2072632765042,14.227070146511997)"><circle class="outline" cx="0" cy="0" r="25" fill="#8DCC93" stroke="#5db665" stroke-width="2px"/><text class="caption" text-anchor="middle" pointer-events="none" x="0" y="5" font-size="10px" fill="#2A2C34" font-family="sans-serif"> DAY</text></g><g class="node" aria-label="graph-node659" transform="translate(-112.91476220399521,118.0333524955736)"><circle class="outline" cx="0" cy="0" r="25" fill="#ECB5C9" stroke="#da7298" stroke-width="2px"/><text class="caption" text-anchor="middle" pointer-events="none" x="0" y="5" font-size="10px" fill="#2A2C34" font-family="sans-serif"> 11/29/20…</text></g><g class="node" aria-label="graph-node35" transform="translate(138.60230411515386,260.2955794507935)"><circle class="outline" cx="0" cy="0" r="25" fill="#8DCC93" stroke="#5db665" stroke-width="2px"/><text class="caption" text-anchor="middle" pointer-events="none" x="0" y="5" font-size="10px" fill="#2A2C34" font-family="sans-serif"> LAS</text></g><g class="node" aria-label="graph-node591" transform="translate(22.47722451614598,282.0391516038754)"><circle class="outline" cx="0" cy="0" r="25" fill="#ECB5C9" stroke="#da7298" stroke-width="2px"/><text class="caption" text-anchor="middle" pointer-events="none" x="0" y="5" font-size="10px" fill="#2A2C34" font-family="sans-serif"> 11/29/20…</text></g><g class="node" aria-label="graph-node17" transform="translate(11.090559787233405,91.95043078199858)"><circle class="outline" cx="0" cy="0" r="25" fill="#8DCC93" stroke="#5db665" stroke-width="2px"/><text class="caption" text-anchor="middle" pointer-events="none" x="0" y="5" font-size="10px" fill="#2A2C34" font-family="sans-serif"> ORD</text></g><g class="node" aria-label="graph-node319" transform="translate(242.12910710847552,147.44907764752574)"><circle class="outline" cx="0" cy="0" r="25" fill="#ECB5C9" stroke="#da7298" stroke-width="2px"/><text class="caption" text-anchor="middle" pointer-events="none" x="0" y="5" font-size="10px" fill="#2A2C34" font-family="sans-serif"> 11/29/20…</text></g><g class="node" aria-label="graph-node18" transform="translate(413.92939345938754,33.59701859881023)"><circle class="outline" cx="0" cy="0" r="25" fill="#8DCC93" stroke="#5db665" stroke-width="2px"/><text class="caption" text-anchor="middle" pointer-events="none" x="0" y="5" font-size="10px" fill="#2A2C34" font-family="sans-serif"> MSP</text></g><g class="node" aria-label="graph-node1087" transform="translate(451.8073044415372,165.8279484715437)"><circle class="outline" cx="0" cy="0" r="25" fill="#ECB5C9" stroke="#da7298" stroke-width="2px"/><text class="caption" text-anchor="middle" pointer-events="none" x="0" y="5" font-size="10px" fill="#2A2C34" font-family="sans-serif"> 11/25/20…</text></g><g class="node" aria-label="graph-node495" transform="translate(143.3220628937909,161.01137418033585)"><circle class="outline" cx="0" cy="0" r="25" fill="#ECB5C9" stroke="#da7298" stroke-width="2px"/><text class="caption" text-anchor="middle" pointer-events="none" x="0" y="5" font-size="10px" fill="#2A2C34" font-family="sans-serif"> 11/29/20…</text></g><g class="node" aria-label="graph-node129" transform="translate(181.7672752322105,70.10920139726969)"><circle class="outline" cx="0" cy="0" r="25" fill="#ECB5C9" stroke="#da7298" stroke-width="2px"/><text class="caption" text-anchor="middle" pointer-events="none" x="0" y="5" font-size="10px" fill="#2A2C34" font-family="sans-serif"> 11/30/20…</text></g><g class="node" aria-label="graph-node643" transform="translate(278.1533323374291,55.04407796099138)"><circle class="outline" cx="0" cy="0" r="25" fill="#ECB5C9" stroke="#da7298" stroke-width="2px"/><text class="caption" text-anchor="middle" pointer-events="none" x="0" y="5" font-size="10px" fill="#2A2C34" font-family="sans-serif"> 11/29/20…</text></g><g class="node" aria-label="graph-node27" transform="translate(176.91551815848413,-155.0456562082736)"><circle class="outline" cx="0" cy="0" r="25" fill="#8DCC93" stroke="#5db665" stroke-width="2px"/><text class="caption" text-anchor="middle" pointer-events="none" x="0" y="5" font-size="10px" fill="#2A2C34" font-family="sans-serif"> DEN</text></g><g class="node" aria-label="graph-node623" transform="translate(349.19956999196455,-130.69883886690178)"><circle class="outline" cx="0" cy="0" r="25" fill="#ECB5C9" stroke="#da7298" stroke-width="2px"/><text class="caption" text-anchor="middle" pointer-events="none" x="0" y="5" font-size="10px" fill="#2A2C34" font-family="sans-serif"> 11/29/20…</text></g><g class="node" aria-label="graph-node1091" transform="translate(550.3428278970958,162.91329596128304)"><circle class="outline" cx="0" cy="0" r="25" fill="#ECB5C9" stroke="#da7298" stroke-width="2px"/><text class="caption" text-anchor="middle" pointer-events="none" x="0" y="5" font-size="10px" fill="#2A2C34" font-family="sans-serif"> 11/23/20…</text></g><g class="node" aria-label="graph-node1075" transform="translate(616.7476708288297,89.30570610417647)"><circle class="outline" cx="0" cy="0" r="25" fill="#ECB5C9" stroke="#da7298" stroke-width="2px"/><text class="caption" text-anchor="middle" pointer-events="none" x="0" y="5" font-size="10px" fill="#2A2C34" font-family="sans-serif"> 11/11/20…</text></g><g class="node" aria-label="graph-node1083" transform="translate(460.5686906825901,-114.83987477611358)"><circle class="outline" cx="0" cy="0" r="25" fill="#ECB5C9" stroke="#da7298" stroke-width="2px"/><text class="caption" text-anchor="middle" pointer-events="none" x="0" y="5" font-size="10px" fill="#2A2C34" font-family="sans-serif"> 11/20/20…</text></g><g class="node" aria-label="graph-node595" transform="translate(216.94491292731468,-21.841901448010766)"><circle class="outline" cx="0" cy="0" r="25" fill="#ECB5C9" stroke="#da7298" stroke-width="2px"/><text class="caption" text-anchor="middle" pointer-events="none" x="0" y="5" font-size="10px" fill="#2A2C34" font-family="sans-serif"> 11/29/20…</text></g><g class="node" aria-label="graph-node1079" transform="translate(558.9916036418197,-103.68160969987309)"><circle class="outline" cx="0" cy="0" r="25" fill="#ECB5C9" stroke="#da7298" stroke-width="2px"/><text class="caption" text-anchor="middle" pointer-events="none" x="0" y="5" font-size="10px" fill="#2A2C34" font-family="sans-serif"> 11/16/20…</text></g><g class="node" aria-label="graph-node1007" transform="translate(-318.209247232728,-213.2781502779294)"><circle class="outline" cx="0" cy="0" r="25" fill="#ECB5C9" stroke="#da7298" stroke-width="2px"/><text class="caption" text-anchor="middle" pointer-events="none" x="0" y="0" font-size="10px" fill="#2A2C34" font-family="sans-serif"> 11/3/2015</text><text class="caption" text-anchor="middle" pointer-events="none" x="0" y="10" font-size="10px" fill="#2A2C34" font-family="sans-serif"> 13:44:…</text></g><g class="node" aria-label="graph-node23" transform="translate(-123.40635933905476,-318.9697879016293)"><circle class="outline" cx="0" cy="0" r="25" fill="#8DCC93" stroke="#5db665" stroke-width="2px"/><text class="caption" text-anchor="middle" pointer-events="none" x="0" y="5" font-size="10px" fill="#2A2C34" font-family="sans-serif"> SMF</text></g><g class="node" aria-label="graph-node185" transform="translate(31.124721529389614,-137.55159366576456)"><circle class="outline" cx="0" cy="0" r="25" fill="#ECB5C9" stroke="#da7298" stroke-width="2px"/><text class="caption" text-anchor="middle" pointer-events="none" x="0" y="5" font-size="10px" fill="#2A2C34" font-family="sans-serif"> 11/30/20…</text></g><g class="node" aria-label="graph-node999" transform="translate(-223.5325724381081,-184.68362900810155)"><circle class="outline" cx="0" cy="0" r="25" fill="#ECB5C9" stroke="#da7298" stroke-width="2px"/><text class="caption" text-anchor="middle" pointer-events="none" x="0" y="0" font-size="10px" fill="#2A2C34" font-family="sans-serif"> 11/1/2015</text><text class="caption" text-anchor="middle" pointer-events="none" x="0" y="10" font-size="10px" fill="#2A2C34" font-family="sans-serif"> 12:26:…</text></g><g class="node" aria-label="graph-node567" transform="translate(-66.40635773528038,-146.0957044688407)"><circle class="outline" cx="0" cy="0" r="25" fill="#ECB5C9" stroke="#da7298" stroke-width="2px"/><text class="caption" text-anchor="middle" pointer-events="none" x="0" y="5" font-size="10px" fill="#2A2C34" font-family="sans-serif"> 11/29/20…</text></g><g class="node" aria-label="graph-node113" transform="translate(-449.8290449863601,-185.22213051731853)"><circle class="outline" cx="0" cy="0" r="25" fill="#ECB5C9" stroke="#da7298" stroke-width="2px"/><text class="caption" text-anchor="middle" pointer-events="none" x="0" y="5" font-size="10px" fill="#2A2C34" font-family="sans-serif"> 11/30/20…</text></g><g class="node" aria-label="graph-node12" transform="translate(-272.7349255356157,-94.0404365645148)"><circle class="outline" cx="0" cy="0" r="25" fill="#8DCC93" stroke="#5db665" stroke-width="2px"/><text class="caption" text-anchor="middle" pointer-events="none" x="0" y="5" font-size="10px" fill="#2A2C34" font-family="sans-serif"> IAH</text></g><g class="node" aria-label="graph-node527" transform="translate(-129.4061751580971,-69.71110339461845)"><circle class="outline" cx="0" cy="0" r="25" fill="#ECB5C9" stroke="#da7298" stroke-width="2px"/><text class="caption" text-anchor="middle" pointer-events="none" x="0" y="5" font-size="10px" fill="#2A2C34" font-family="sans-serif"> 11/29/20…</text></g><g class="node" aria-label="graph-node189" transform="translate(64.13202809201398,-319.4121947366479)"><circle class="outline" cx="0" cy="0" r="25" fill="#ECB5C9" stroke="#da7298" stroke-width="2px"/><text class="caption" text-anchor="middle" pointer-events="none" x="0" y="5" font-size="10px" fill="#2A2C34" font-family="sans-serif"> 11/30/20…</text></g><g class="node" aria-label="graph-node515" transform="translate(-94.4340467821057,21.732837004348315)"><circle class="outline" cx="0" cy="0" r="25" fill="#ECB5C9" stroke="#da7298" stroke-width="2px"/><text class="caption" text-anchor="middle" pointer-events="none" x="0" y="5" font-size="10px" fill="#2A2C34" font-family="sans-serif"> 11/29/20…</text></g><g class="node" aria-label="graph-node995" transform="translate(-247.12133817746744,-280.024478264873)"><circle class="outline" cx="0" cy="0" r="25" fill="#ECB5C9" stroke="#da7298" stroke-width="2px"/><text class="caption" text-anchor="middle" pointer-events="none" x="0" y="0" font-size="10px" fill="#2A2C34" font-family="sans-serif"> 11/2/2015</text><text class="caption" text-anchor="middle" pointer-events="none" x="0" y="10" font-size="10px" fill="#2A2C34" font-family="sans-serif"> 11:49:…</text></g><g class="node" aria-label="graph-node1003" transform="translate(-340.3241627801666,-309.02517396428857)"><circle class="outline" cx="0" cy="0" r="25" fill="#ECB5C9" stroke="#da7298" stroke-width="2px"/><text class="caption" text-anchor="middle" pointer-events="none" x="0" y="0" font-size="10px" fill="#2A2C34" font-family="sans-serif"> 11/4/2015</text><text class="caption" text-anchor="middle" pointer-events="none" x="0" y="10" font-size="10px" fill="#2A2C34" font-family="sans-serif"> 05:06:…</text></g><g class="node" aria-label="graph-node169" transform="translate(-189.83744500581184,39.06631134126691)"><circle class="outline" cx="0" cy="0" r="25" fill="#ECB5C9" stroke="#da7298" stroke-width="2px"/><text class="caption" text-anchor="middle" pointer-events="none" x="0" y="5" font-size="10px" fill="#2A2C34" font-family="sans-serif"> 11/30/20…</text></g><g class="node" aria-label="graph-node145" transform="translate(-489.34508877435974,-4.611750639573801)"><circle class="outline" cx="0" cy="0" r="25" fill="#ECB5C9" stroke="#da7298" stroke-width="2px"/><text class="caption" text-anchor="middle" pointer-events="none" x="0" y="5" font-size="10px" fill="#2A2C34" font-family="sans-serif"> 11/30/20…</text></g><g class="node" aria-label="graph-node11" transform="translate(-297.1904947935523,60.71153070141054)"><circle class="outline" cx="0" cy="0" r="25" fill="#8DCC93" stroke="#5db665" stroke-width="2px"/><text class="caption" text-anchor="middle" pointer-events="none" x="0" y="5" font-size="10px" fill="#2A2C34" font-family="sans-serif"> EWR</text></g><g class="node" aria-label="graph-node141" transform="translate(-208.87490209541474,135.9216612197895)"><circle class="outline" cx="0" cy="0" r="25" fill="#ECB5C9" stroke="#da7298" stroke-width="2px"/><text class="caption" text-anchor="middle" pointer-events="none" x="0" y="5" font-size="10px" fill="#2A2C34" font-family="sans-serif"> 11/30/20…</text></g><g class="node" aria-label="graph-node543" transform="translate(-451.0074068950341,86.39568968591725)"><circle class="outline" cx="0" cy="0" r="25" fill="#ECB5C9" stroke="#da7298" stroke-width="2px"/><text class="caption" text-anchor="middle" pointer-events="none" x="0" y="5" font-size="10px" fill="#2A2C34" font-family="sans-serif"> 11/29/20…</text></g><g class="node" aria-label="graph-node157" transform="translate(-157.68638720558164,218.4986295294621)"><circle class="outline" cx="0" cy="0" r="25" fill="#ECB5C9" stroke="#da7298" stroke-width="2px"/><text class="caption" text-anchor="middle" pointer-events="none" x="0" y="5" font-size="10px" fill="#2A2C34" font-family="sans-serif"> 11/30/20…</text></g><g class="node" aria-label="graph-node647" transform="translate(-368.9356642211499,143.67074679185671)"><circle class="outline" cx="0" cy="0" r="25" fill="#ECB5C9" stroke="#da7298" stroke-width="2px"/><text class="caption" text-anchor="middle" pointer-events="none" x="0" y="5" font-size="10px" fill="#2A2C34" font-family="sans-serif"> 11/29/20…</text></g><g class="node" aria-label="graph-node26" transform="translate(-243.18011520666724,318.997635425896)"><circle class="outline" cx="0" cy="0" r="25" fill="#8DCC93" stroke="#5db665" stroke-width="2px"/><text class="caption" text-anchor="middle" pointer-events="none" x="0" y="5" font-size="10px" fill="#2A2C34" font-family="sans-serif"> BOS</text></g><g class="node" aria-label="graph-node259" transform="translate(-68.70310469099297,321.8793923248236)"><circle class="outline" cx="0" cy="0" r="25" fill="#ECB5C9" stroke="#da7298" stroke-width="2px"/><text class="caption" text-anchor="middle" pointer-events="none" x="0" y="5" font-size="10px" fill="#2A2C34" font-family="sans-serif"> 11/30/20…</text></g><g class="node" aria-label="graph-node671" transform="translate(-58.910098874117836,224.86450949833085)"><circle class="outline" cx="0" cy="0" r="25" fill="#ECB5C9" stroke="#da7298" stroke-width="2px"/><text class="caption" text-anchor="middle" pointer-events="none" x="0" y="5" font-size="10px" fill="#2A2C34" font-family="sans-serif"> 11/29/20…</text></g><g class="node" aria-label="graph-node231" transform="translate(-31.756517346575844,-54.14849068443489)"><circle class="outline" cx="0" cy="0" r="25" fill="#ECB5C9" stroke="#da7298" stroke-width="2px"/><text class="caption" text-anchor="middle" pointer-events="none" x="0" y="5" font-size="10px" fill="#2A2C34" font-family="sans-serif"> 11/30/20…</text></g></g></svg>