<svg xmlns="http://www.w3.org/2000/svg" width="619.8032836914062" height="772.3585205078125" viewBox="-295.0753173828125 -359.8898620605469 619.8032836914062 772.3585205078125"><title>Neo4j Graph Visualization</title><desc>Created using Neo4j (http://www.neo4j.com/)</desc><g class="layer relationships"><g class="relationship" transform="translate(141.4994663825143 154.4422851910272) rotate(212.9814177107748)"><path class="outline" fill="#A5ABB6" stroke="none" d="M 25 0.5 L 89.98092144829951 0.5 L 89.98092144829951 -0.5 L 25 -0.5 Z M 124.42623394829951 0.5 L 189.40715539659902 0.5 L 189.40715539659902 3.5 L 196.40715539659902 0 L 189.40715539659902 -3.5 L 189.40715539659902 -0.5 L 124.42623394829951 -0.5 Z"/><text text-anchor="middle" pointer-events="none" font-size="8px" fill="#000000" x="107.20357769829951" y="3" transform="rotate(180 107.20357769829951 0)" font-family="sans-serif">ORIGIN</text></g><g class="relationship" transform="translate(141.4994663825143 154.4422851910272) rotate(377.95747459415645)"><path class="outline" fill="#A5ABB6" stroke="none" d="M 25 0.5 L 47.969443590994615 0.5 L 47.969443590994615 -0.5 L 25 -0.5 Z M 107.15694359099462 0.5 L 130.12638718198923 0.5 L 130.12638718198923 3.5 L 137.12638718198923 0 L 130.12638718198923 -3.5 L 130.12638718198923 -0.5 L 107.15694359099462 -0.5 Z"/><text text-anchor="middle" pointer-events="none" font-size="8px" fill="#000000" x="77.56319359099462" y="3" font-family="sans-serif">DESTINATION</text></g><g class="relationship" transform="translate(195.4247606801907 71.59550694776559) rotate(188.93534110457102)"><path class="outline" fill="#A5ABB6" stroke="none" d="M 25 0.5 L 100.57541604172219 0.5 L 100.57541604172219 -0.5 L 25 -0.5 Z M 135.02072854172218 0.5 L 210.59614458344439 0.5 L 210.59614458344439 3.5 L 217.59614458344439 0 L 210.59614458344439 -3.5 L 210.59614458344439 -0.5 L 135.02072854172218 -0.5 Z"/><text text-anchor="middle" pointer-events="none" font-size="8px" fill="#000000" x="117.79807229172219" y="3" transform="rotate(180 117.79807229172219 0)" font-family="sans-serif">ORIGIN</text></g><g class="relationship" transform="translate(195.4247606801907 71.59550694776559) rotate(518.3602567098031)"><path class="outline" fill="#A5ABB6" stroke="none" d="M 25 0.5 L 55.3550069838374 0.5 L 55.3550069838374 -0.5 L 25 -0.5 Z M 114.5425069838374 0.5 L 144.8975139676748 0.5 L 144.8975139676748 3.5 L 151.8975139676748 0 L 144.8975139676748 -3.5 L 144.8975139676748 -0.5 L 114.5425069838374 -0.5 Z"/><text text-anchor="middle" pointer-events="none" font-size="8px" fill="#000000" x="84.9487569838374" y="3" transform="rotate(180 84.9487569838374 0)" font-family="sans-serif">DESTINATION</text></g><g class="relationship" transform="translate(98.9763306024712 65.91577419969677) rotate(192.59635554086083)"><path class="outline" fill="#A5ABB6" stroke="none" d="M 25 0.5 L 52.645072470914286 0.5 L 52.645072470914286 -0.5 L 25 -0.5 Z M 87.09038497091429 0.5 L 114.73545744182857 0.5 L 114.73545744182857 3.5 L 121.73545744182857 0 L 114.73545744182857 -3.5 L 114.73545744182857 -0.5 L 87.09038497091429 -0.5 Z"/><text text-anchor="middle" pointer-events="none" font-size="8px" fill="#000000" x="69.86772872091429" y="3" transform="rotate(180 69.86772872091429 0)" font-family="sans-serif">ORIGIN</text></g><g class="relationship" transform="translate(98.9763306024712 65.91577419969677) rotate(493.79044783567997)"><path class="outline" fill="#A5ABB6" stroke="none" d="M 25 0.5 L 26.838669361600083 0.5 L 26.838669361600083 -0.5 L 25 -0.5 Z M 64.39726311160008 0.5 L 66.23593247320017 0.5 L 66.23593247320017 3.5 L 73.23593247320017 0 L 66.23593247320017 -3.5 L 66.23593247320017 -0.5 L 64.39726311160008 -0.5 Z"/><text text-anchor="middle" pointer-events="none" font-size="8px" fill="#000000" x="45.61796623660008" y="3" transform="rotate(180 45.61796623660008 0)" font-family="sans-serif">DESTI…</text></g><g class="relationship" transform="translate(151.534875029673 -17.291382142266656) rotate(525.341172595687)"><path class="outline" fill="#A5ABB6" stroke="none" d="M 25 0.5 L 80.45166927294568 0.5 L 80.45166927294568 -0.5 L 25 -0.5 Z M 114.89698177294568 0.5 L 170.34865104589136 0.5 L 170.34865104589136 3.5 L 177.34865104589136 0 L 170.34865104589136 -3.5 L 170.34865104589136 -0.5 L 114.89698177294568 -0.5 Z"/><text text-anchor="middle" pointer-events="none" font-size="8px" fill="#000000" x="97.67432552294568" y="3" transform="rotate(180 97.67432552294568 0)" font-family="sans-serif">ORIGIN</text></g><g class="relationship" transform="translate(151.534875029673 -17.291382142266656) rotate(488.0293778413136)"><path class="outline" fill="#A5ABB6" stroke="none" d="M 25 0.5 L 64.73680926369279 0.5 L 64.73680926369279 -0.5 L 25 -0.5 Z M 123.92430926369279 0.5 L 163.66111852738558 0.5 L 163.66111852738558 3.5 L 170.66111852738558 0 L 163.66111852738558 -3.5 L 163.66111852738558 -0.5 L 123.92430926369279 -0.5 Z"/><text text-anchor="middle" pointer-events="none" font-size="8px" fill="#000000" x="94.33055926369279" y="3" transform="rotate(180 94.33055926369279 0)" font-family="sans-serif">DESTINATION</text></g><g class="relationship" transform="translate(54.401854983052715 -22.12107271792951) rotate(510.39672788344757)"><path class="outline" fill="#A5ABB6" stroke="none" d="M 25 0.5 L 35.995531126450224 0.5 L 35.995531126450224 -0.5 L 25 -0.5 Z M 70.44084362645023 0.5 L 81.43637475290045 0.5 L 81.43637475290045 3.5 L 88.43637475290045 0 L 81.43637475290045 -3.5 L 81.43637475290045 -0.5 L 70.44084362645023 -0.5 Z"/><text text-anchor="middle" pointer-events="none" font-size="8px" fill="#000000" x="53.218187376450224" y="3" transform="rotate(180 53.218187376450224 0)" font-family="sans-serif">ORIGIN</text></g><g class="relationship" transform="translate(54.401854983052715 -22.12107271792951) rotate(458.37713763596435)"><path class="outline" fill="#A5ABB6" stroke="none" d="M 25 0.5 L 47.238840268495466 0.5 L 47.238840268495466 -0.5 L 25 -0.5 Z M 106.42634026849547 0.5 L 128.66518053699093 0.5 L 128.66518053699093 3.5 L 135.66518053699093 0 L 128.66518053699093 -3.5 L 128.66518053699093 -0.5 L 106.42634026849547 -0.5 Z"/><text text-anchor="middle" pointer-events="none" font-size="8px" fill="#000000" x="76.83259026849547" y="3" transform="rotate(180 76.83259026849547 0)" font-family="sans-serif">DESTINATION</text></g><g class="relationship" transform="translate(-75.47073009835768 -172.92043730520317) rotate(441.41017411676467)"><path class="outline" fill="#A5ABB6" stroke="none" d="M 25 0.5 L 83.86853767067687 0.5 L 83.86853767067687 -0.5 L 25 -0.5 Z M 118.31385017067687 0.5 L 177.18238784135374 0.5 L 177.18238784135374 3.5 L 184.18238784135374 0 L 177.18238784135374 -3.5 L 177.18238784135374 -0.5 L 118.31385017067687 -0.5 Z"/><text text-anchor="middle" pointer-events="none" font-size="8px" fill="#000000" x="101.09119392067687" y="3" font-family="sans-serif">ORIGIN</text></g><g class="relationship" transform="translate(-75.47073009835768 -172.92043730520317) rotate(265.18561236166806)"><path class="outline" fill="#A5ABB6" stroke="none" d="M 25 0.5 L 46.17062783308701 0.5 L 46.17062783308701 -0.5 L 25 -0.5 Z M 105.35812783308701 0.5 L 126.52875566617402 0.5 L 126.52875566617402 3.5 L 133.52875566617402 0 L 126.52875566617402 -3.5 L 126.52875566617402 -0.5 L 105.35812783308701 -0.5 Z"/><text text-anchor="middle" pointer-events="none" font-size="8px" fill="#000000" x="75.76437783308701" y="3" transform="rotate(180 75.76437783308701 0)" font-family="sans-serif">DESTINATION</text></g><g class="relationship" transform="translate(86.64506601642658 -115.30997460865107) rotate(491.2511077992259)"><path class="outline" fill="#A5ABB6" stroke="none" d="M 25 0.5 L 78.51925550441543 0.5 L 78.51925550441543 -0.5 L 25 -0.5 Z M 112.96456800441543 0.5 L 166.48382350883085 0.5 L 166.48382350883085 3.5 L 173.48382350883085 0 L 166.48382350883085 -3.5 L 166.48382350883085 -0.5 L 112.96456800441543 -0.5 Z"/><text text-anchor="middle" pointer-events="none" font-size="8px" fill="#000000" x="95.74191175441543" y="3" transform="rotate(180 95.74191175441543 0)" font-family="sans-serif">ORIGIN</text></g><g class="relationship" transform="translate(86.64506601642658 -115.30997460865107) rotate(529.2916919064469)"><path class="outline" fill="#A5ABB6" stroke="none" d="M 25 0.5 L 65.43012831731066 0.5 L 65.43012831731066 -0.5 L 25 -0.5 Z M 124.61762831731066 0.5 L 165.04775663462132 0.5 L 165.04775663462132 3.5 L 172.04775663462132 0 L 165.04775663462132 -3.5 L 165.04775663462132 -0.5 L 124.61762831731066 -0.5 Z"/><text text-anchor="middle" pointer-events="none" font-size="8px" fill="#000000" x="95.02387831731066" y="3" transform="rotate(180 95.02387831731066 0)" font-family="sans-serif">DESTINATION</text></g><g class="relationship" transform="translate(-9.667170361897595 -98.40914594212681) rotate(464.63735058641805)"><path class="outline" fill="#A5ABB6" stroke="none" d="M 25 0.5 L 47.65903629625795 0.5 L 47.65903629625795 -0.5 L 25 -0.5 Z M 82.10434879625795 0.5 L 104.7633850925159 0.5 L 104.7633850925159 3.5 L 111.7633850925159 0 L 104.7633850925159 -3.5 L 104.7633850925159 -0.5 L 82.10434879625795 -0.5 Z"/><text text-anchor="middle" pointer-events="none" font-size="8px" fill="#000000" x="64.88169254625795" y="3" transform="rotate(180 64.88169254625795 0)" font-family="sans-serif">ORIGIN</text></g><g class="relationship" transform="translate(-9.667170361897595 -98.40914594212681) rotate(528.5476774586914)"><path class="outline" fill="#A5ABB6" stroke="none" d="M 25 0.5 L 27.361081805748817 0.5 L 27.361081805748817 -0.5 L 25 -0.5 Z M 64.91967555574882 0.5 L 67.28075736149763 0.5 L 67.28075736149763 3.5 L 74.28075736149763 0 L 67.28075736149763 -3.5 L 67.28075736149763 -0.5 L 64.91967555574882 -0.5 Z"/><text text-anchor="middle" pointer-events="none" font-size="8px" fill="#000000" x="46.14037868074882" y="3" transform="rotate(180 46.14037868074882 0)" font-family="sans-serif">DESTI…</text></g><g class="relationship" transform="translate(21.44483675467404 -190.18994245629307) rotate(466.3327575959601)"><path class="outline" fill="#A5ABB6" stroke="none" d="M 25 0.5 L 96.04216521079248 0.5 L 96.04216521079248 -0.5 L 25 -0.5 Z M 130.48747771079246 0.5 L 201.52964292158495 0.5 L 201.52964292158495 3.5 L 208.52964292158495 0 L 201.52964292158495 -3.5 L 201.52964292158495 -0.5 L 130.48747771079246 -0.5 Z"/><text text-anchor="middle" pointer-events="none" font-size="8px" fill="#000000" x="113.26482146079248" y="3" transform="rotate(180 113.26482146079248 0)" font-family="sans-serif">ORIGIN</text></g><g class="relationship" transform="translate(21.44483675467404 -190.18994245629307) rotate(499.03488279243606)"><path class="outline" fill="#A5ABB6" stroke="none" d="M 25 0.5 L 51.9377715434654 0.5 L 51.9377715434654 -0.5 L 25 -0.5 Z M 111.1252715434654 0.5 L 138.0630430869308 0.5 L 138.0630430869308 3.5 L 145.0630430869308 0 L 138.0630430869308 -3.5 L 138.0630430869308 -0.5 L 111.1252715434654 -0.5 Z"/><text text-anchor="middle" pointer-events="none" font-size="8px" fill="#000000" x="81.5315215434654" y="3" transform="rotate(180 81.5315215434654 0)" font-family="sans-serif">DESTINATION</text></g><g class="relationship" transform="translate(-172.9702126697514 -161.4533074509165) rotate(416.6161712917014)"><path class="outline" fill="#A5ABB6" stroke="none" d="M 25 0.5 L 96.26422618745367 0.5 L 96.26422618745367 -0.5 L 25 -0.5 Z M 130.7095386874537 0.5 L 201.97376487490735 0.5 L 201.97376487490735 3.5 L 208.97376487490735 0 L 201.97376487490735 -3.5 L 201.97376487490735 -0.5 L 130.7095386874537 -0.5 Z"/><text text-anchor="middle" pointer-events="none" font-size="8px" fill="#000000" x="113.48688243745367" y="3" font-family="sans-serif">ORIGIN</text></g><g class="relationship" transform="translate(-172.9702126697514 -161.4533074509165) rotate(411.42740613073727)"><path class="outline" fill="#A5ABB6" stroke="none" d="M 25 0.5 L 25.089752036949562 0.5 L 25.089752036949562 -0.5 L 25 -0.5 Z M 73.76162703694956 0.5 L 73.85137907389912 0.5 L 73.85137907389912 3.5 L 80.85137907389912 0 L 73.85137907389912 -3.5 L 73.85137907389912 -0.5 L 73.76162703694956 -0.5 Z"/><text text-anchor="middle" pointer-events="none" font-size="8px" fill="#000000" x="49.42568953694956" y="3" font-family="sans-serif">DESTINA…</text></g><g class="relationship" transform="translate(-235.521715380891 -85.22932949994073) rotate(391.91609643098514)"><path class="outline" fill="#A5ABB6" stroke="none" d="M 25 0.5 L 91.95947733986416 0.5 L 91.95947733986416 -0.5 L 25 -0.5 Z M 126.40478983986416 0.5 L 193.36426717972833 0.5 L 193.36426717972833 3.5 L 200.36426717972833 0 L 193.36426717972833 -3.5 L 193.36426717972833 -0.5 L 126.40478983986416 -0.5 Z"/><text text-anchor="middle" pointer-events="none" font-size="8px" fill="#000000" x="109.18213358986416" y="3" font-family="sans-serif">ORIGIN</text></g><g class="relationship" transform="translate(-235.521715380891 -85.22932949994073) rotate(362.9091295106451)"><path class="outline" fill="#A5ABB6" stroke="none" d="M 25 0.5 L 31.26441006192441 0.5 L 31.26441006192441 -0.5 L 25 -0.5 Z M 90.45191006192441 0.5 L 96.71632012384882 0.5 L 96.71632012384882 3.5 L 103.71632012384882 0 L 96.71632012384882 -3.5 L 96.71632012384882 -0.5 L 90.45191006192441 -0.5 Z"/><text text-anchor="middle" pointer-events="none" font-size="8px" fill="#000000" x="60.85816006192441" y="3" font-family="sans-serif">DESTINATION</text></g><g class="relationship" transform="translate(-220.82900565123543 11.578128420057288) rotate(367.20875682018345)"><path class="outline" fill="#A5ABB6" stroke="none" d="M 25 0.5 L 68.28172986541874 0.5 L 68.28172986541874 -0.5 L 25 -0.5 Z M 102.72704236541874 0.5 L 146.00877223083748 0.5 L 146.00877223083748 3.5 L 153.00877223083748 0 L 146.00877223083748 -3.5 L 146.00877223083748 -0.5 L 102.72704236541874 -0.5 Z"/><text text-anchor="middle" pointer-events="none" font-size="8px" fill="#000000" x="85.50438611541874" y="3" font-family="sans-serif">ORIGIN</text></g><g class="relationship" transform="translate(-220.82900565123543 11.578128420057288) rotate(321.59001494493003)"><path class="outline" fill="#A5ABB6" stroke="none" d="M 25 0.5 L 39.55803819499195 0.5 L 39.55803819499195 -0.5 L 25 -0.5 Z M 98.74553819499195 0.5 L 113.3035763899839 0.5 L 113.3035763899839 3.5 L 120.3035763899839 0 L 113.3035763899839 -3.5 L 113.3035763899839 -0.5 L 98.74553819499195 -0.5 Z"/><text text-anchor="middle" pointer-events="none" font-size="8px" fill="#000000" x="69.15178819499195" y="3" font-family="sans-serif">DESTINATION</text></g><g class="relationship" transform="translate(-155.24735278336794 85.79456869433366) rotate(334.953585916217)"><path class="outline" fill="#A5ABB6" stroke="none" d="M 25 0.5 L 40.549047686433454 0.5 L 40.549047686433454 -0.5 L 25 -0.5 Z M 74.99436018643345 0.5 L 90.54340787286691 0.5 L 90.54340787286691 3.5 L 97.54340787286691 0 L 90.54340787286691 -3.5 L 90.54340787286691 -0.5 L 74.99436018643345 -0.5 Z"/><text text-anchor="middle" pointer-events="none" font-size="8px" fill="#000000" x="57.771703936433454" y="3" font-family="sans-serif">ORIGIN</text></g><g class="relationship" transform="translate(-155.24735278336794 85.79456869433366) rotate(286.35628675763473)"><path class="outline" fill="#A5ABB6" stroke="none" d="M 25 0.5 L 52.62083487719562 0.5 L 52.62083487719562 -0.5 L 25 -0.5 Z M 111.80833487719562 0.5 L 139.42916975439124 0.5 L 139.42916975439124 3.5 L 146.42916975439124 0 L 139.42916975439124 -3.5 L 139.42916975439124 -0.5 L 111.80833487719562 -0.5 Z"/><text text-anchor="middle" pointer-events="none" font-size="8px" fill="#000000" x="82.21458487719562" y="3" font-family="sans-serif">DESTINATION</text></g><g class="relationship" transform="translate(-187.13485836113978 180.19378726434994) rotate(314.33220212337756)"><path class="outline" fill="#A5ABB6" stroke="none" d="M 25 0.5 L 81.5269135378894 0.5 L 81.5269135378894 -0.5 L 25 -0.5 Z M 115.9722260378894 0.5 L 172.4991395757788 0.5 L 172.4991395757788 3.5 L 179.4991395757788 0 L 172.4991395757788 -3.5 L 172.4991395757788 -0.5 L 115.9722260378894 -0.5 Z"/><text text-anchor="middle" pointer-events="none" font-size="8px" fill="#000000" x="98.7495697878894" y="3" font-family="sans-serif">ORIGIN</text></g><g class="relationship" transform="translate(-187.13485836113978 180.19378726434994) rotate(487.7780232359996)"><path class="outline" fill="#A5ABB6" stroke="none" d="M 25 0.5 L 31.336511753646505 0.5 L 31.336511753646505 -0.5 L 25 -0.5 Z M 90.5240117536465 0.5 L 96.86052350729301 0.5 L 96.86052350729301 3.5 L 103.86052350729301 0 L 96.86052350729301 -3.5 L 96.86052350729301 -0.5 L 90.5240117536465 -0.5 Z"/><text text-anchor="middle" pointer-events="none" font-size="8px" fill="#000000" x="60.930261753646505" y="3" transform="rotate(180 60.930261753646505 0)" font-family="sans-serif">DESTINATION</text></g><g class="relationship" transform="translate(-91.12045129599987 162.71719919461563) rotate(290.00517759813397)"><path class="outline" fill="#A5ABB6" stroke="none" d="M 25 0.5 L 47.81353243681531 0.5 L 47.81353243681531 -0.5 L 25 -0.5 Z M 82.25884493681531 0.5 L 105.07237737363062 0.5 L 105.07237737363062 3.5 L 112.07237737363062 0 L 105.07237737363062 -3.5 L 105.07237737363062 -0.5 L 82.25884493681531 -0.5 Z"/><text text-anchor="middle" pointer-events="none" font-size="8px" fill="#000000" x="65.03618868681531" y="3" font-family="sans-serif">ORIGIN</text></g><g class="relationship" transform="translate(-91.12045129599987 162.71719919461563) rotate(505.70434885158056)"><path class="outline" fill="#A5ABB6" stroke="none" d="M 25 0.5 L 72.79305179299863 0.5 L 72.79305179299863 -0.5 L 25 -0.5 Z M 131.98055179299863 0.5 L 179.77360358599725 0.5 L 179.77360358599725 3.5 L 186.77360358599725 0 L 179.77360358599725 -3.5 L 179.77360358599725 -0.5 L 131.98055179299863 -0.5 Z"/><text text-anchor="middle" pointer-events="none" font-size="8px" fill="#000000" x="102.38680179299863" y="3" transform="rotate(180 102.38680179299863 0)" font-family="sans-serif">DESTINATION</text></g><g class="relationship" transform="translate(-251.78574591003414 106.40931962221222) rotate(340.74726161829904)"><path class="outline" fill="#A5ABB6" stroke="none" d="M 25 0.5 L 89.20443129188514 0.5 L 89.20443129188514 -0.5 L 25 -0.5 Z M 123.64974379188514 0.5 L 187.8541750837703 0.5 L 187.8541750837703 3.5 L 194.8541750837703 0 L 187.8541750837703 -3.5 L 187.8541750837703 -0.5 L 123.64974379188514 -0.5 Z"/><text text-anchor="middle" pointer-events="none" font-size="8px" fill="#000000" x="106.42708754188514" y="3" font-family="sans-serif">ORIGIN</text></g><g class="relationship" transform="translate(-251.78574591003414 106.40931962221222) rotate(454.6513231575994)"><path class="outline" fill="#A5ABB6" stroke="none" d="M 25 0.5 L 55.01369085920608 0.5 L 55.01369085920608 -0.5 L 25 -0.5 Z M 114.20119085920608 0.5 L 144.21488171841216 0.5 L 144.21488171841216 3.5 L 151.21488171841216 0 L 144.21488171841216 -3.5 L 144.21488171841216 -0.5 L 114.20119085920608 -0.5 Z"/><text text-anchor="middle" pointer-events="none" font-size="8px" fill="#000000" x="84.60744085920608" y="3" transform="rotate(180 84.60744085920608 0)" font-family="sans-serif">DESTINATION</text></g><g class="relationship" transform="translate(-121.9061538994648 254.78469100939012) rotate(289.37658260892016)"><path class="outline" fill="#A5ABB6" stroke="none" d="M 25 0.5 L 96.3426982777594 0.5 L 96.3426982777594 -0.5 L 25 -0.5 Z M 130.78801077775938 0.5 L 202.1307090555188 0.5 L 202.1307090555188 3.5 L 209.1307090555188 0 L 202.1307090555188 -3.5 L 202.1307090555188 -0.5 L 130.78801077775938 -0.5 Z"/><text text-anchor="middle" pointer-events="none" font-size="8px" fill="#000000" x="113.5653545277594" y="3" font-family="sans-serif">ORIGIN</text></g><g class="relationship" transform="translate(-121.9061538994648 254.78469100939012) rotate(529.293045533203)"><path class="outline" fill="#A5ABB6" stroke="none" d="M 25 0.5 L 40.26804411984806 0.5 L 40.26804411984806 -0.5 L 25 -0.5 Z M 99.45554411984806 0.5 L 114.72358823969611 0.5 L 114.72358823969611 3.5 L 121.72358823969611 0 L 114.72358823969611 -3.5 L 114.72358823969611 -0.5 L 99.45554411984806 -0.5 Z"/><text text-anchor="middle" pointer-events="none" font-size="8px" fill="#000000" x="69.86179411984806" y="3" transform="rotate(180 69.86179411984806 0)" font-family="sans-serif">DESTINATION</text></g><g class="relationship" transform="translate(73.53548308754337 225.81647997360773) rotate(238.4640406640196)"><path class="outline" fill="#A5ABB6" stroke="none" d="M 25 0.5 L 91.85403463838304 0.5 L 91.85403463838304 -0.5 L 25 -0.5 Z M 126.29934713838304 0.5 L 193.15338177676608 0.5 L 193.15338177676608 3.5 L 200.15338177676608 0 L 193.15338177676608 -3.5 L 193.15338177676608 -0.5 L 126.29934713838304 -0.5 Z"/><text text-anchor="middle" pointer-events="none" font-size="8px" fill="#000000" x="109.07669088838304" y="3" transform="rotate(180 109.07669088838304 0)" font-family="sans-serif">ORIGIN</text></g><g class="relationship" transform="translate(73.53548308754337 225.81647997360773) rotate(447.06011646088575)"><path class="outline" fill="#A5ABB6" stroke="none" d="M 25 0.5 L 45.83622852439399 0.5 L 45.83622852439399 -0.5 L 25 -0.5 Z M 105.02372852439399 0.5 L 125.85995704878798 0.5 L 125.85995704878798 3.5 L 132.85995704878798 0 L 125.85995704878798 -3.5 L 125.85995704878798 -0.5 L 105.02372852439399 -0.5 Z"/><text text-anchor="middle" pointer-events="none" font-size="8px" fill="#000000" x="75.42997852439399" y="3" font-family="sans-serif">DESTINATION</text></g><g class="relationship" transform="translate(-24.721283156167747 237.0287348300228) rotate(264.5144118146597)"><path class="outline" fill="#A5ABB6" stroke="none" d="M 25 0.5 L 81.30118492464923 0.5 L 81.30118492464923 -0.5 L 25 -0.5 Z M 115.74649742464923 0.5 L 172.04768234929847 0.5 L 172.04768234929847 3.5 L 179.04768234929847 0 L 172.04768234929847 -3.5 L 172.04768234929847 -0.5 L 115.74649742464923 -0.5 Z"/><text text-anchor="middle" pointer-events="none" font-size="8px" fill="#000000" x="98.52384117464923" y="3" transform="rotate(180 98.52384117464923 0)" font-family="sans-serif">ORIGIN</text></g><g class="relationship" transform="translate(-24.721283156167747 237.0287348300228) rotate(414.01068947395925)"><path class="outline" fill="#A5ABB6" stroke="none" d="M 25 0.5 L 57.3988470976083 0.5 L 57.3988470976083 -0.5 L 25 -0.5 Z M 116.5863470976083 0.5 L 148.9851941952166 0.5 L 148.9851941952166 3.5 L 155.9851941952166 0 L 148.9851941952166 -3.5 L 148.9851941952166 -0.5 L 116.5863470976083 -0.5 Z"/><text text-anchor="middle" pointer-events="none" font-size="8px" fill="#000000" x="86.9925970976083" y="3" font-family="sans-serif">DESTINATION</text></g></g><g class="layer nodes"><g class="node" aria-label="graph-node12" transform="translate(295.7279653983453,204.4276381657547)"><circle class="outline" cx="0" cy="0" r="25" fill="#8DCC93" stroke="#5db665" stroke-width="2px"/><text class="caption" text-anchor="middle" pointer-events="none" x="0" y="5" font-size="10px" fill="#2A2C34" font-family="sans-serif"> IAH</text></g><g class="node" aria-label="graph-node23" transform="translate(30.994822137505203,136.8298978684477)"><circle class="outline" cx="0" cy="0" r="25" fill="#8DCC93" stroke="#5db665" stroke-width="2px"/><text class="caption" text-anchor="middle" pointer-events="none" x="0" y="5" font-size="10px" fill="#2A2C34" font-family="sans-serif"> SMF</text></g><g class="node" aria-label="graph-node35" transform="translate(-88.77574286534511,-330.8898742489861)"><circle class="outline" cx="0" cy="0" r="25" fill="#8DCC93" stroke="#5db665" stroke-width="2px"/><text class="caption" text-anchor="middle" pointer-events="none" x="0" y="5" font-size="10px" fill="#2A2C34" font-family="sans-serif"> LAS</text></g><g class="node" aria-label="graph-node50" transform="translate(-106.97127416364486,-78.6967091163217)"><circle class="outline" cx="0" cy="0" r="25" fill="#8DCC93" stroke="#5db665" stroke-width="2px"/><text class="caption" text-anchor="middle" pointer-events="none" x="0" y="5" font-size="10px" fill="#2A2C34" font-family="sans-serif"> ABQ</text></g><g class="node" aria-label="graph-node51" transform="translate(-266.0753216475496,282.0438622505796)"><circle class="outline" cx="0" cy="0" r="25" fill="#8DCC93" stroke="#5db665" stroke-width="2px"/><text class="caption" text-anchor="middle" pointer-events="none" x="0" y="5" font-size="10px" fill="#2A2C34" font-family="sans-serif"> FAT</text></g><g class="node" aria-label="graph-node52" transform="translate(81.63182593632318,383.4686771416783)"><circle class="outline" cx="0" cy="0" r="25" fill="#8DCC93" stroke="#5db665" stroke-width="2px"/><text class="caption" text-anchor="middle" pointer-events="none" x="0" y="5" font-size="10px" fill="#2A2C34" font-family="sans-serif"> TUS</text></g><g class="node" aria-label="graph-node15" transform="translate(-44.22729764065583,33.91553469017184)"><circle class="outline" cx="0" cy="0" r="25" fill="#8DCC93" stroke="#5db665" stroke-width="2px"/><text class="caption" text-anchor="middle" pointer-events="none" x="0" y="5" font-size="10px" fill="#2A2C34" font-family="sans-serif"> LAX</text></g><g class="node" aria-label="graph-node113" transform="translate(141.4994663825143,154.4422851910272)"><circle class="outline" cx="0" cy="0" r="25" fill="#ECB5C9" stroke="#da7298" stroke-width="2px"/><text class="caption" text-anchor="middle" pointer-events="none" x="0" y="5" font-size="10px" fill="#2A2C34" font-family="sans-serif"> 11/30/20…</text></g><g class="node" aria-label="graph-node1003" transform="translate(195.4247606801907,71.59550694776559)"><circle class="outline" cx="0" cy="0" r="25" fill="#ECB5C9" stroke="#da7298" stroke-width="2px"/><text class="caption" text-anchor="middle" pointer-events="none" x="0" y="0" font-size="10px" fill="#2A2C34" font-family="sans-serif"> 11/4/2015</text><text class="caption" text-anchor="middle" pointer-events="none" x="0" y="10" font-size="10px" fill="#2A2C34" font-family="sans-serif"> 05:06:…</text></g><g class="node" aria-label="graph-node995" transform="translate(98.9763306024712,65.91577419969677)"><circle class="outline" cx="0" cy="0" r="25" fill="#ECB5C9" stroke="#da7298" stroke-width="2px"/><text class="caption" text-anchor="middle" pointer-events="none" x="0" y="0" font-size="10px" fill="#2A2C34" font-family="sans-serif"> 11/2/2015</text><text class="caption" text-anchor="middle" pointer-events="none" x="0" y="10" font-size="10px" fill="#2A2C34" font-family="sans-serif"> 11:49:…</text></g><g class="node" aria-label="graph-node999" transform="translate(151.534875029673,-17.291382142266656)"><circle class="outline" cx="0" cy="0" r="25" fill="#ECB5C9" stroke="#da7298" stroke-width="2px"/><text class="caption" text-anchor="middle" pointer-events="none" x="0" y="0" font-size="10px" fill="#2A2C34" font-family="sans-serif"> 11/1/2015</text><text class="caption" text-anchor="middle" pointer-events="none" x="0" y="10" font-size="10px" fill="#2A2C34" font-family="sans-serif"> 12:26:…</text></g><g class="node" aria-label="graph-node1007" transform="translate(54.401854983052715,-22.12107271792951)"><circle class="outline" cx="0" cy="0" r="25" fill="#ECB5C9" stroke="#da7298" stroke-width="2px"/><text class="caption" text-anchor="middle" pointer-events="none" x="0" y="0" font-size="10px" fill="#2A2C34" font-family="sans-serif"> 11/3/2015</text><text class="caption" text-anchor="middle" pointer-events="none" x="0" y="10" font-size="10px" fill="#2A2C34" font-family="sans-serif"> 13:44:…</text></g><g class="node" aria-label="graph-node659" transform="translate(-75.47073009835768,-172.92043730520317)"><circle class="outline" cx="0" cy="0" r="25" fill="#ECB5C9" stroke="#da7298" stroke-width="2px"/><text class="caption" text-anchor="middle" pointer-events="none" x="0" y="5" font-size="10px" fill="#2A2C34" font-family="sans-serif"> 11/29/20…</text></g><g class="node" aria-label="graph-node975" transform="translate(86.64506601642658,-115.30997460865107)"><circle class="outline" cx="0" cy="0" r="25" fill="#ECB5C9" stroke="#da7298" stroke-width="2px"/><text class="caption" text-anchor="middle" pointer-events="none" x="0" y="0" font-size="10px" fill="#2A2C34" font-family="sans-serif"> 11/2/2015</text><text class="caption" text-anchor="middle" pointer-events="none" x="0" y="10" font-size="10px" fill="#2A2C34" font-family="sans-serif"> 15:15:…</text></g><g class="node" aria-label="graph-node931" transform="translate(-9.667170361897595,-98.40914594212681)"><circle class="outline" cx="0" cy="0" r="25" fill="#ECB5C9" stroke="#da7298" stroke-width="2px"/><text class="caption" text-anchor="middle" pointer-events="none" x="0" y="0" font-size="10px" fill="#2A2C34" font-family="sans-serif"> 11/3/2015</text><text class="caption" text-anchor="middle" pointer-events="none" x="0" y="10" font-size="10px" fill="#2A2C34" font-family="sans-serif"> 21:46:…</text></g><g class="node" aria-label="graph-node927" transform="translate(21.44483675467404,-190.18994245629307)"><circle class="outline" cx="0" cy="0" r="25" fill="#ECB5C9" stroke="#da7298" stroke-width="2px"/><text class="caption" text-anchor="middle" pointer-events="none" x="0" y="0" font-size="10px" fill="#2A2C34" font-family="sans-serif"> 11/1/2015</text><text class="caption" text-anchor="middle" pointer-events="none" x="0" y="10" font-size="10px" fill="#2A2C34" font-family="sans-serif"> 05:43:…</text></g><g class="node" aria-label="graph-node971" transform="translate(-172.9702126697514,-161.4533074509165)"><circle class="outline" cx="0" cy="0" r="25" fill="#ECB5C9" stroke="#da7298" stroke-width="2px"/><text class="caption" text-anchor="middle" pointer-events="none" x="0" y="0" font-size="10px" fill="#2A2C34" font-family="sans-serif"> 11/1/2015</text><text class="caption" text-anchor="middle" pointer-events="none" x="0" y="10" font-size="10px" fill="#2A2C34" font-family="sans-serif"> 17:17:…</text></g><g class="node" aria-label="graph-node919" transform="translate(-235.521715380891,-85.22932949994073)"><circle class="outline" cx="0" cy="0" r="25" fill="#ECB5C9" stroke="#da7298" stroke-width="2px"/><text class="caption" text-anchor="middle" pointer-events="none" x="0" y="0" font-size="10px" fill="#2A2C34" font-family="sans-serif"> 11/2/2015</text><text class="caption" text-anchor="middle" pointer-events="none" x="0" y="10" font-size="10px" fill="#2A2C34" font-family="sans-serif"> 04:43:…</text></g><g class="node" aria-label="graph-node923" transform="translate(-220.82900565123543,11.578128420057288)"><circle class="outline" cx="0" cy="0" r="25" fill="#ECB5C9" stroke="#da7298" stroke-width="2px"/><text class="caption" text-anchor="middle" pointer-events="none" x="0" y="0" font-size="10px" fill="#2A2C34" font-family="sans-serif"> 11/4/2015</text><text class="caption" text-anchor="middle" pointer-events="none" x="0" y="10" font-size="10px" fill="#2A2C34" font-family="sans-serif"> 15:09:…</text></g><g class="node" aria-label="graph-node967" transform="translate(-155.24735278336794,85.79456869433366)"><circle class="outline" cx="0" cy="0" r="25" fill="#ECB5C9" stroke="#da7298" stroke-width="2px"/><text class="caption" text-anchor="middle" pointer-events="none" x="0" y="0" font-size="10px" fill="#2A2C34" font-family="sans-serif"> 11/3/2015</text><text class="caption" text-anchor="middle" pointer-events="none" x="0" y="10" font-size="10px" fill="#2A2C34" font-family="sans-serif"> 23:26:…</text></g><g class="node" aria-label="graph-node963" transform="translate(-187.13485836113978,180.19378726434994)"><circle class="outline" cx="0" cy="0" r="25" fill="#ECB5C9" stroke="#da7298" stroke-width="2px"/><text class="caption" text-anchor="middle" pointer-events="none" x="0" y="0" font-size="10px" fill="#2A2C34" font-family="sans-serif"> 11/4/2015</text><text class="caption" text-anchor="middle" pointer-events="none" x="0" y="10" font-size="10px" fill="#2A2C34" font-family="sans-serif"> 15:13:…</text></g><g class="node" aria-label="graph-node951" transform="translate(-91.12045129599987,162.71719919461563)"><circle class="outline" cx="0" cy="0" r="25" fill="#ECB5C9" stroke="#da7298" stroke-width="2px"/><text class="caption" text-anchor="middle" pointer-events="none" x="0" y="0" font-size="10px" fill="#2A2C34" font-family="sans-serif"> 11/3/2015</text><text class="caption" text-anchor="middle" pointer-events="none" x="0" y="10" font-size="10px" fill="#2A2C34" font-family="sans-serif"> 11:45:…</text></g><g class="node" aria-label="graph-node959" transform="translate(-251.78574591003414,106.40931962221222)"><circle class="outline" cx="0" cy="0" r="25" fill="#ECB5C9" stroke="#da7298" stroke-width="2px"/><text class="caption" text-anchor="middle" pointer-events="none" x="0" y="0" font-size="10px" fill="#2A2C34" font-family="sans-serif"> 11/1/2015</text><text class="caption" text-anchor="middle" pointer-events="none" x="0" y="10" font-size="10px" fill="#2A2C34" font-family="sans-serif"> 02:27:…</text></g><g class="node" aria-label="graph-node955" transform="translate(-121.9061538994648,254.78469100939012)"><circle class="outline" cx="0" cy="0" r="25" fill="#ECB5C9" stroke="#da7298" stroke-width="2px"/><text class="caption" text-anchor="middle" pointer-events="none" x="0" y="0" font-size="10px" fill="#2A2C34" font-family="sans-serif"> 11/2/2015</text><text class="caption" text-anchor="middle" pointer-events="none" x="0" y="10" font-size="10px" fill="#2A2C34" font-family="sans-serif"> 09:18:…</text></g><g class="node" aria-label="graph-node979" transform="translate(73.53548308754337,225.81647997360773)"><circle class="outline" cx="0" cy="0" r="25" fill="#ECB5C9" stroke="#da7298" stroke-width="2px"/><text class="caption" text-anchor="middle" pointer-events="none" x="0" y="0" font-size="10px" fill="#2A2C34" font-family="sans-serif"> 11/1/2015</text><text class="caption" text-anchor="middle" pointer-events="none" x="0" y="10" font-size="10px" fill="#2A2C34" font-family="sans-serif"> 05:51:…</text></g><g class="node" aria-label="graph-node983" transform="translate(-24.721283156167747,237.0287348300228)"><circle class="outline" cx="0" cy="0" r="25" fill="#ECB5C9" stroke="#da7298" stroke-width="2px"/><text class="caption" text-anchor="middle" pointer-events="none" x="0" y="0" font-size="10px" fill="#2A2C34" font-family="sans-serif"> 11/2/2015</text><text class="caption" text-anchor="middle" pointer-events="none" x="0" y="10" font-size="10px" fill="#2A2C34" font-family="sans-serif"> 09:52:…</text></g></g></svg>