<svg xmlns="http://www.w3.org/2000/svg" width="239.4510955810547" height="250.04873657226562" viewBox="-10.191787719726562 -8.92679214477539 239.4510955810547 250.04873657226562"><title>Neo4j Graph Visualization</title><desc>Created using Neo4j (http://www.neo4j.com/)</desc><g class="layer relationships"><g class="relationship" transform="translate(122.38412576071514 130.48804108736917) rotate(409.23626263758126)"><path class="outline" fill="#A5ABB6" stroke="none" d="M 25 0.5 L 27.609034730723103 0.5 L 27.609034730723103 -0.5 L 25 -0.5 Z M 73.1715347307231 0.5 L 75.7805694614462 0.5 L 75.7805694614462 3.5 L 82.7805694614462 0 L 75.7805694614462 -3.5 L 75.7805694614462 -0.5 L 73.1715347307231 -0.5 Z"/><text text-anchor="middle" pointer-events="none" font-size="8px" fill="#000000" x="50.3902847307231" y="3" font-family="sans-serif">ACTED_IN</text></g><g class="relationship" transform="translate(122.38412576071514 130.48804108736917) rotate(313.53347890450107)"><path class="outline" fill="#A5ABB6" stroke="none" d="M 25 0.5 L 30.250119529677924 0.5 L 30.250119529677924 -0.5 L 25 -0.5 Z M 75.81261952967793 0.5 L 81.06273905935585 0.5 L 81.06273905935585 3.5 L 88.06273905935585 0 L 81.06273905935585 -3.5 L 81.06273905935585 -0.5 L 75.81261952967793 -0.5 Z"/><text text-anchor="middle" pointer-events="none" font-size="8px" fill="#000000" x="53.031369529677924" y="3" font-family="sans-serif">ACTED_IN</text></g><g class="relationship" transform="translate(122.38412576071514 130.48804108736917) rotate(257.1111894249847)"><path class="outline" fill="#A5ABB6" stroke="none" d="M 25 0.5 L 30.353081634049317 0.5 L 30.353081634049317 -0.5 L 25 -0.5 Z M 75.91558163404932 0.5 L 81.26866326809863 0.5 L 81.26866326809863 3.5 L 88.26866326809863 0 L 81.26866326809863 -3.5 L 81.26866326809863 -0.5 L 75.91558163404932 -0.5 Z"/><text text-anchor="middle" pointer-events="none" font-size="8px" fill="#000000" x="53.13433163404932" y="3" transform="rotate(180 53.13433163404932 0)" font-family="sans-serif">ACTED_IN</text></g><g class="relationship" transform="translate(122.38412576071514 130.48804108736917) rotate(203.77745984277846)"><path class="outline" fill="#A5ABB6" stroke="none" d="M 25 0.5 L 30.310290437686646 0.5 L 30.310290437686646 -0.5 L 25 -0.5 Z M 75.87279043768665 0.5 L 81.18308087537329 0.5 L 81.18308087537329 3.5 L 88.18308087537329 0 L 81.18308087537329 -3.5 L 81.18308087537329 -0.5 L 75.87279043768665 -0.5 Z"/><text text-anchor="middle" pointer-events="none" font-size="8px" fill="#000000" x="53.091540437686646" y="3" transform="rotate(180 53.091540437686646 0)" font-family="sans-serif">ACTED_IN</text></g><g class="relationship" transform="translate(122.38412576071514 130.48804108736917) rotate(506.9443759531748)"><path class="outline" fill="#A5ABB6" stroke="none" d="M 25 0.5 L 30.10518426020206 0.5 L 30.10518426020206 -0.5 L 25 -0.5 Z M 75.66768426020207 0.5 L 80.77286852040412 0.5 L 80.77286852040412 3.5 L 87.77286852040412 0 L 80.77286852040412 -3.5 L 80.77286852040412 -0.5 L 75.66768426020207 -0.5 Z"/><text text-anchor="middle" pointer-events="none" font-size="8px" fill="#000000" x="52.88643426020206" y="3" transform="rotate(180 52.88643426020206 0)" font-family="sans-serif">ACTED_IN</text></g></g><g class="layer nodes"><g class="node" transform="translate(122.38412576071514,130.48804108736917)"><circle class="outline" cx="0" cy="0" r="25" fill="#57C7E3" stroke="#23b3d7" stroke-width="2px"/><text text-anchor="middle" pointer-events="none" font-family="sans-serif" dy="1.5625" font-size="25" fill="#2A2C34"/><text text-anchor="middle" pointer-events="none" font-family="sans-serif" dy="1.5625" font-size="25" fill="#2A2C34"/><text text-anchor="middle" pointer-events="none" x="0" y="0" font-size="10px" fill="#2A2C34" font-family="sans-serif"> Hugo</text><text text-anchor="middle" pointer-events="none" x="0" y="10" font-size="10px" fill="#2A2C34" font-family="sans-serif"> Weaving</text></g><g class="node" transform="translate(192.7585183525988,212.12195573536985)"><circle class="outline" cx="0" cy="0" r="25" fill="#F79767" stroke="#f36924" stroke-width="2px"/><text text-anchor="middle" pointer-events="none" font-family="sans-serif" dy="1.5625" font-size="25" fill="#FFFFFF"/><text text-anchor="middle" pointer-events="none" font-family="sans-serif" dy="1.5625" font-size="25" fill="#FFFFFF"/><text text-anchor="middle" pointer-events="none" x="0" y="0" font-size="10px" fill="#FFFFFF" font-family="sans-serif"> Cloud</text><text text-anchor="middle" pointer-events="none" x="0" y="10" font-size="10px" fill="#FFFFFF" font-family="sans-serif"> Atlas</text></g><g class="node" transform="translate(200.2592877341191,48.52071765162383)"><circle class="outline" cx="0" cy="0" r="25" fill="#F79767" stroke="#f36924" stroke-width="2px"/><text text-anchor="middle" pointer-events="none" font-family="sans-serif" dy="1.5625" font-size="25" fill="#FFFFFF"/><text text-anchor="middle" pointer-events="none" font-family="sans-serif" dy="1.5625" font-size="25" fill="#FFFFFF"/><text text-anchor="middle" pointer-events="none" x="0" y="0" font-size="10px" fill="#FFFFFF" font-family="sans-serif"> V for</text><text text-anchor="middle" pointer-events="none" x="0" y="10" font-size="10px" fill="#FFFFFF" font-family="sans-serif"> Vendetta</text></g><g class="node" transform="translate(97.11844623142153,20.073207317331953)"><circle class="outline" cx="0" cy="0" r="25" fill="#F79767" stroke="#f36924" stroke-width="2px"/><text text-anchor="middle" pointer-events="none" font-family="sans-serif" dy="1.5625" font-size="25" fill="#FFFFFF"/><text text-anchor="middle" pointer-events="none" font-family="sans-serif" dy="1.5625" font-size="25" fill="#FFFFFF"/><text text-anchor="middle" pointer-events="none" font-family="sans-serif" dy="1.5625" font-size="25" fill="#FFFFFF"/><text text-anchor="middle" pointer-events="none" x="0" y="-5" font-size="10px" fill="#FFFFFF" font-family="sans-serif"> The</text><text text-anchor="middle" pointer-events="none" x="0" y="5" font-size="10px" fill="#FFFFFF" font-family="sans-serif"> Matrix</text><text text-anchor="middle" pointer-events="none" x="0" y="15" font-size="10px" fill="#FFFFFF" font-family="sans-serif"> Revol…</text></g><g class="node" transform="translate(18.808211344402274,84.85428440149107)"><circle class="outline" cx="0" cy="0" r="25" fill="#F79767" stroke="#f36924" stroke-width="2px"/><text text-anchor="middle" pointer-events="none" font-family="sans-serif" dy="1.5625" font-size="25" fill="#FFFFFF"/><text text-anchor="middle" pointer-events="none" font-family="sans-serif" dy="1.5625" font-size="25" fill="#FFFFFF"/><text text-anchor="middle" pointer-events="none" font-family="sans-serif" dy="1.5625" font-size="25" fill="#FFFFFF"/><text text-anchor="middle" pointer-events="none" x="0" y="-5" font-size="10px" fill="#FFFFFF" font-family="sans-serif"> The</text><text text-anchor="middle" pointer-events="none" x="0" y="5" font-size="10px" fill="#FFFFFF" font-family="sans-serif"> Matrix</text><text text-anchor="middle" pointer-events="none" x="0" y="15" font-size="10px" fill="#FFFFFF" font-family="sans-serif"> Reloa…</text></g><g class="node" transform="translate(27.864513056299167,192.0003381386707)"><circle class="outline" cx="0" cy="0" r="25" fill="#F79767" stroke="#f36924" stroke-width="2px"/><text text-anchor="middle" pointer-events="none" font-family="sans-serif" dy="1.5625" font-size="25" fill="#FFFFFF"/><text text-anchor="middle" pointer-events="none" font-family="sans-serif" dy="1.5625" font-size="25" fill="#FFFFFF"/><text text-anchor="middle" pointer-events="none" x="0" y="0" font-size="10px" fill="#FFFFFF" font-family="sans-serif"> The</text><text text-anchor="middle" pointer-events="none" x="0" y="10" font-size="10px" fill="#FFFFFF" font-family="sans-serif"> Matrix</text></g></g></svg>