<svg xmlns="http://www.w3.org/2000/svg" width="379.71063232421875" height="371.08343505859375" viewBox="-92.2420654296875 -82.49059295654297 379.71063232421875 371.08343505859375"><title>Neo4j Graph Visualization</title><desc>Created using Neo4j (http://www.neo4j.com/)</desc><g class="layer relationships"><g class="relationship" transform="translate(150.92421987784633 259.59280776347293) rotate(306.3547570959283)"><path class="outline" fill="#A5ABB6" stroke="none" d="M 24.018736134675446,6.953439040707552 L 24.277555179777966,5.987513214418485 A 100.10979288572133 100.10979288572133 0 0 0 25.482638313256164,6.302392569455037 L 25.235856883043663,7.2714637359347165 A 101.10979288572133 101.10979288572133 0 0 1 24.018736134675446,6.953439040707552 Z M 71.92794741544013,8.033800291648589 L 71.71293291867283,7.057189434561735 A 100.10979288572133 100.10979288572133 0 0 0 72.9276530120055,6.781817936988823 L 72.2462078853107,3.8602374504535146 L 79.85824833503703,5.678709389123472 L 73.83624651426527,10.677258585702567 L 73.15480138757046,7.755678099167259 A 101.10979288572133 101.10979288572133 0 0 1 71.92794741544013,8.033800291648589"/><text text-anchor="middle" pointer-events="none" font-size="8px" fill="#000000" x="48.54545020386884" y="12.885264727890998" font-family="sans-serif">DIRECTED</text></g><g class="relationship" transform="translate(150.92421987784633 259.59280776347293) rotate(306.3547570959283)"><path class="outline" fill="#A5ABB6" stroke="none" d="M 24.018736134675446,-6.953439040707552 L 24.277555179777966,-5.987513214418485 A 100.10979288572133 100.10979288572133 0 0 1 30.877510956324706,-7.518611706485785 L 30.68461908564038,-8.499831725759691 A 101.10979288572133 101.10979288572133 0 0 0 24.018736134675446,-6.953439040707552 Z M 66.4419891972091,-9.083638320440386 L 66.28123213744824,-8.096644314512758 A 100.10979288572133 100.10979288572133 0 0 1 72.9276530120055,-6.781817936988823 L 72.2462078853107,-3.8602374504535146 L 79.85824833503703,-5.678709389123472 L 73.83624651426527,-10.677258585702567 L 73.15480138757046,-7.755678099167259 A 101.10979288572133 101.10979288572133 0 0 0 66.4419891972091,-9.083638320440386"/><text text-anchor="middle" pointer-events="none" font-size="8px" fill="#000000" x="48.54545020386881" y="-6.885264727890998" font-family="sans-serif">WROTE</text></g><g class="relationship" transform="translate(258.4685499687049 81.97290464442911) rotate(476.0366740926423)"><path class="outline" fill="#A5ABB6" stroke="none" d="M 24.018736134675446,6.953439040707552 L 24.277555179777966,5.987513214418485 A 100.26134021123944 100.26134021123944 0 0 0 25.519598201752103,6.311810029084185 L 25.273167211899565,7.280970370431433 A 101.26134021123944 101.26134021123944 0 0 1 24.018736134675446,6.953439040707552 Z M 71.96619379524932,8.04280271283588 L 71.751510736187,7.066118944079761 A 100.26134021123944 100.26134021123944 0 0 0 73.00347214368156,6.782513713907459 L 72.321962024774,3.8609483872672037 L 79.9340429256601,5.679250990896486 L 73.912152302225,10.677934149427799 L 73.23064218331743,7.756368822787543 A 101.26134021123944 101.26134021123944 0 0 1 71.96619379524932,8.04280271283588"/><text text-anchor="middle" pointer-events="none" font-size="8px" fill="#000000" x="48.583320171583956" y="12.89042667272453" transform="rotate(180 48.583320171583956 9.89042667272453)" font-family="sans-serif">DIRECTED</text></g><g class="relationship" transform="translate(258.4685499687049 81.97290464442911) rotate(476.0366740926423)"><path class="outline" fill="#A5ABB6" stroke="none" d="M 24.018736134675446,-6.953439040707552 L 24.277555179777966,-5.987513214418485 A 100.26134021123944 100.26134021123944 0 0 1 30.91490242331813,-7.526312005837809 L 30.72228384221854,-8.50758570986497 A 101.26134021123944 101.26134021123944 0 0 0 24.018736134675446,-6.953439040707552 Z M 66.4799618700409,-9.090999499978835 L 66.31945774949315,-8.103964329740606 A 100.26134021123944 100.26134021123944 0 0 1 73.00347214368156,-6.782513713907459 L 72.321962024774,-3.8609483872672037 L 79.9340429256601,-5.679250990896486 L 73.912152302225,-10.677934149427799 L 73.23064218331743,-7.756368822787543 A 101.26134021123944 101.26134021123944 0 0 0 66.4799618700409,-9.090999499978835"/><text text-anchor="middle" pointer-events="none" font-size="8px" fill="#000000" x="48.583320171583935" y="-6.89042667272453" transform="rotate(180 48.583320171583935 -9.89042667272453)" font-family="sans-serif">WROTE</text></g><g class="relationship" transform="translate(144.2558980237135 -53.49059300215347) rotate(535.1155596260876)"><path class="outline" fill="#A5ABB6" stroke="none" d="M 21.40063509461097,12.933012701892217 L 21.90063509461097,12.06698729810778 A 56.68730351812014 56.68730351812014 0 0 0 23.844629482603978,13.139155454337377 L 23.378922776998756,14.02409458464767 A 57.68730351812014 57.68730351812014 0 0 1 21.40063509461097,12.933012701892217 Z M 73.82136909987368,15.623617587564674 L 73.41266422361271,14.710950986816897 A 56.68730351812014 56.68730351812014 0 0 0 75.42068141152511,13.764100571582501 L 74.08829869112601,11.076209895535222 L 81.91449010903528,11.103189336659153 L 77.19719170539058,17.347954806312206 L 75.86480898499148,14.660064130264926 A 57.68730351812014 57.68730351812014 0 0 1 73.82136909987368,15.623617587564674"/><text text-anchor="middle" pointer-events="none" font-size="8px" fill="#000000" x="48.43179637561087" y="23.13291620641111" transform="rotate(180 48.43179637561087 20.13291620641111)" font-family="sans-serif">PRODUCED</text></g><g class="relationship" transform="translate(144.2558980237135 -53.49059300215347) rotate(535.1155596260876)"><path class="outline" fill="#A5ABB6" stroke="none" d="M 25 0.5 L 25.211477038047974 0.5 L 25.211477038047974 -0.5 L 25 -0.5 Z M 72.10210203804797 0.5 L 72.31357907609595 0.5 L 72.31357907609595 3.5 L 79.31357907609595 0 L 72.31357907609595 -3.5 L 72.31357907609595 -0.5 L 72.10210203804797 -0.5 Z"/><text text-anchor="middle" pointer-events="none" font-size="8px" fill="#000000" x="48.656789538047974" y="3" transform="rotate(180 48.656789538047974 0)" font-family="sans-serif">DIRECTED</text></g><g class="relationship" transform="translate(144.2558980237135 -53.49059300215347) rotate(535.1155596260876)"><path class="outline" fill="#A5ABB6" stroke="none" d="M 21.40063509461097,-12.933012701892217 L 21.90063509461097,-12.06698729810778 A 56.68730351812014 56.68730351812014 0 0 1 31.100916967209944,-16.331457833134287 L 30.763215776671892,-17.272711202801126 A 57.68730351812014 57.68730351812014 0 0 0 21.40063509461097,-12.933012701892217 Z M 66.24609180940415,-18.397868298884895 L 65.96870312974941,-17.437110514425456 A 56.68730351812014 56.68730351812014 0 0 1 75.42068141152511,-13.764100571582501 L 74.08829869112601,-11.076209895535222 L 81.91449010903528,-11.103189336659153 L 77.19719170539058,-17.347954806312206 L 75.86480898499148,-14.660064130264926 A 57.68730351812014 57.68730351812014 0 0 0 66.24609180940415,-18.397868298884895"/><text text-anchor="middle" pointer-events="none" font-size="8px" fill="#000000" x="48.43179637561088" y="-17.13291620641111" transform="rotate(180 48.43179637561088 -20.13291620641111)" font-family="sans-serif">WROTE</text></g><g class="relationship" transform="translate(-63.2420673124037 97.79470917611923) rotate(432.89353698407217)"><path class="outline" fill="#A5ABB6" stroke="none" d="M 21.40063509461097,12.933012701892217 L 21.90063509461097,12.06698729810778 A 57.5833746598346 57.5833746598346 0 0 0 31.521474857045735,16.496790132400044 L 31.188551549220662,17.43974403960167 A 58.5833746598346 58.5833746598346 0 0 1 21.40063509461097,12.933012701892217 Z M 66.68478875667095,18.556576124350975 L 66.41180232622028,17.594558240530823 A 57.5833746598346 57.5833746598346 0 0 0 76.29209030284565,13.778327065129963 L 74.95838410572482,11.091092840176454 L 82.78458786059065,11.114218309340272 L 78.07036523234011,17.361306031734642 L 76.73665903521928,14.674071806781134 A 58.5833746598346 58.5833746598346 0 0 1 66.68478875667095,18.556576124350975"/><text text-anchor="middle" pointer-events="none" font-size="8px" fill="#000000" x="48.865726233801084" y="23.252968317497796" font-family="sans-serif">WROTE</text></g><g class="relationship" transform="translate(-63.2420673124037 97.79470917611923) rotate(432.89353698407217)"><path class="outline" fill="#A5ABB6" stroke="none" d="M 25 0.5 L 25.643790700934943 0.5 L 25.643790700934943 -0.5 L 25 -0.5 Z M 72.53441570093494 0.5 L 73.17820640186989 0.5 L 73.17820640186989 3.5 L 80.17820640186989 0 L 73.17820640186989 -3.5 L 73.17820640186989 -0.5 L 72.53441570093494 -0.5 Z"/><text text-anchor="middle" pointer-events="none" font-size="8px" fill="#000000" x="49.08910320093494" y="3" font-family="sans-serif">DIRECTED</text></g><g class="relationship" transform="translate(-63.2420673124037 97.79470917611923) rotate(432.89353698407217)"><path class="outline" fill="#A5ABB6" stroke="none" d="M 21.40063509461097,-12.933012701892217 L 21.90063509461097,-12.06698729810778 A 57.5833746598346 57.5833746598346 0 0 1 24.24451667278085,-13.348674969010268 L 23.78522080990404,-14.236958319267515 A 58.5833746598346 58.5833746598346 0 0 0 21.40063509461097,-12.933012701892217 Z M 74.27481790808396,-15.825532388562891 L 73.87227203870569,-14.910132572610046 A 57.5833746598346 57.5833746598346 0 0 1 76.29209030284565,-13.778327065129963 L 74.95838410572482,-11.091092840176454 L 82.78458786059065,-11.114218309340272 L 78.07036523234011,-17.361306031734642 L 76.73665903521928,-14.674071806781134 A 58.5833746598346 58.5833746598346 0 0 0 74.27481790808396,-15.825532388562891"/><text text-anchor="middle" pointer-events="none" font-size="8px" fill="#000000" x="48.86572623380108" y="-17.252968317497796" font-family="sans-serif">PRODUCED</text></g></g><g class="layer nodes"><g class="node" transform="translate(150.92421987784633,259.59280776347293)"><circle class="outline" cx="0" cy="0" r="25" fill="#57C7E3" stroke="#23b3d7" stroke-width="2px"/><text text-anchor="middle" pointer-events="none" font-family="sans-serif" dy="1.5625" font-size="25" fill="#2A2C34"/><text text-anchor="middle" pointer-events="none" font-family="sans-serif" dy="1.5625" font-size="25" fill="#2A2C34"/><text text-anchor="middle" pointer-events="none" x="0" y="0" font-size="10px" fill="#2A2C34" font-family="sans-serif"> Lilly</text><text text-anchor="middle" pointer-events="none" x="0" y="10" font-size="10px" fill="#2A2C34" font-family="sans-serif"> Wacho…</text></g><g class="node" transform="translate(212.6950388710279,175.6702461875285)"><circle class="outline" cx="0" cy="0" r="25" fill="#F79767" stroke="#f36924" stroke-width="2px"/><text text-anchor="middle" pointer-events="none" font-family="sans-serif" dy="1.5625" font-size="25" fill="#FFFFFF"/><text text-anchor="middle" pointer-events="none" font-family="sans-serif" dy="1.5625" font-size="25" fill="#FFFFFF"/><text text-anchor="middle" pointer-events="none" x="0" y="0" font-size="10px" fill="#FFFFFF" font-family="sans-serif"> Speed</text><text text-anchor="middle" pointer-events="none" x="0" y="10" font-size="10px" fill="#FFFFFF" font-family="sans-serif"> Racer</text></g><g class="node" transform="translate(258.4685499687049,81.97290464442911)"><circle class="outline" cx="0" cy="0" r="25" fill="#57C7E3" stroke="#23b3d7" stroke-width="2px"/><text text-anchor="middle" pointer-events="none" font-family="sans-serif" dy="1.5625" font-size="25" fill="#2A2C34"/><text text-anchor="middle" pointer-events="none" font-family="sans-serif" dy="1.5625" font-size="25" fill="#2A2C34"/><text text-anchor="middle" pointer-events="none" x="0" y="0" font-size="10px" fill="#2A2C34" font-family="sans-serif"> Lana</text><text text-anchor="middle" pointer-events="none" x="0" y="10" font-size="10px" fill="#2A2C34" font-family="sans-serif"> Wacho…</text></g><g class="node" transform="translate(144.2558980237135,-53.49059300215347)"><circle class="outline" cx="0" cy="0" r="25" fill="#57C7E3" stroke="#23b3d7" stroke-width="2px"/><text text-anchor="middle" pointer-events="none" font-family="sans-serif" dy="1.5625" font-size="25" fill="#2A2C34"/><text text-anchor="middle" pointer-events="none" font-family="sans-serif" dy="1.5625" font-size="25" fill="#2A2C34"/><text text-anchor="middle" pointer-events="none" x="0" y="0" font-size="10px" fill="#2A2C34" font-family="sans-serif"> Cameron</text><text text-anchor="middle" pointer-events="none" x="0" y="10" font-size="10px" fill="#2A2C34" font-family="sans-serif"> Crowe</text></g><g class="node" transform="translate(40.321138316147895,-44.6086729284579)"><circle class="outline" cx="0" cy="0" r="25" fill="#F79767" stroke="#f36924" stroke-width="2px"/><text text-anchor="middle" pointer-events="none" font-family="sans-serif" dy="1.5625" font-size="25" fill="#FFFFFF"/><text text-anchor="middle" pointer-events="none" font-family="sans-serif" dy="1.5625" font-size="25" fill="#FFFFFF"/><text text-anchor="middle" pointer-events="none" x="0" y="0" font-size="10px" fill="#FFFFFF" font-family="sans-serif"> Jerry</text><text text-anchor="middle" pointer-events="none" x="0" y="10" font-size="10px" fill="#FFFFFF" font-family="sans-serif"> Maguire</text></g><g class="node" transform="translate(-63.2420673124037,97.79470917611923)"><circle class="outline" cx="0" cy="0" r="25" fill="#57C7E3" stroke="#23b3d7" stroke-width="2px"/><text text-anchor="middle" pointer-events="none" font-family="sans-serif" dy="1.5625" font-size="25" fill="#2A2C34"/><text text-anchor="middle" pointer-events="none" font-family="sans-serif" dy="1.5625" font-size="25" fill="#2A2C34"/><text text-anchor="middle" pointer-events="none" x="0" y="0" font-size="10px" fill="#2A2C34" font-family="sans-serif"> Nancy</text><text text-anchor="middle" pointer-events="none" x="0" y="10" font-size="10px" fill="#2A2C34" font-family="sans-serif"> Meyers</text></g><g class="node" transform="translate(-32.30409377467816,198.31981497210106)"><circle class="outline" cx="0" cy="0" r="25" fill="#F79767" stroke="#f36924" stroke-width="2px"/><text text-anchor="middle" pointer-events="none" font-family="sans-serif" dy="1.5625" font-size="25" fill="#FFFFFF"/><text text-anchor="middle" pointer-events="none" x="0" y="5" font-size="10px" fill="#FFFFFF" font-family="sans-serif"> Somethi…</text></g></g></svg>