<svg xmlns="http://www.w3.org/2000/svg" width="346.1121826171875" height="369.0656433105469" viewBox="-50.20668029785156 -62.076438903808594 346.1121826171875 369.0656433105469"><title>Neo4j Graph Visualization</title><desc>Created using Neo4j (http://www.neo4j.com/)</desc><g class="layer relationships"><g class="relationship" transform="translate(195.82044205836323 277.989159502626) rotate(233.1588179418054)"><path class="outline" fill="#A5ABB6" stroke="none" d="M 25 0.5 L 28.1433114168239 0.5 L 28.1433114168239 -0.5 L 25 -0.5 Z M 75.0339364168239 0.5 L 78.1772478336478 0.5 L 78.1772478336478 3.5 L 85.1772478336478 0 L 78.1772478336478 -3.5 L 78.1772478336478 -0.5 L 75.0339364168239 -0.5 Z"/><text text-anchor="middle" pointer-events="none" font-size="8px" fill="#000000" x="51.5886239168239" y="3" transform="rotate(180 51.5886239168239 0)" font-family="sans-serif">DIRECTED</text></g><g class="relationship" transform="translate(120.07433351521392 95.90457852757167) rotate(297.58955407118873)"><path class="outline" fill="#A5ABB6" stroke="none" d="M 24.018736134675446,6.953439040707552 L 24.277555179777966,5.987513214418485 A 89.39068653299682 89.39068653299682 0 0 0 24.80273674154016,6.1265261097176875 L 24.549792822607166,7.094007052100963 A 90.39068653299682 90.39068653299682 0 0 1 24.018736134675446,6.953439040707552 Z M 67.26474391715595,7.826678904758808 L 67.0451286296827,6.851092350163043 A 89.39068653299682 89.39068653299682 0 0 0 67.57476871226939,6.730172373352233 L 66.89814784096015,3.8074708496744 L 74.50717574606921,5.638507260910316 L 68.47692987401504,10.62710773825601 L 67.8003090027058,7.704406214578177 A 90.39068653299682 90.39068653299682 0 0 1 67.26474391715595,7.826678904758808"/><text text-anchor="middle" pointer-events="none" font-size="8px" fill="#000000" x="45.87193638479615" y="12.520206489661959" font-family="sans-serif">PRODU…</text></g><g class="relationship" transform="translate(120.07433351521392 95.90457852757167) rotate(297.58955407118873)"><path class="outline" fill="#A5ABB6" stroke="none" d="M 24.018736134675446,-6.953439040707552 L 24.277555179777966,-5.987513214418485 A 89.39068653299682 89.39068653299682 0 0 1 28.243279495312667,-6.953649883755915 L 28.028824404323764,-7.930383733865014 A 90.39068653299682 90.39068653299682 0 0 0 24.018736134675446,-6.953439040707552 Z M 63.75907526725016,-8.543249918300631 L 63.57824349591522,-7.559735876471095 A 89.39068653299682 89.39068653299682 0 0 1 67.57476871226939,-6.730172373352233 L 66.89814784096015,-3.8074708496744 L 74.50717574606921,-5.638507260910316 L 68.47692987401504,-10.62710773825601 L 67.8003090027058,-7.704406214578177 A 90.39068653299682 90.39068653299682 0 0 0 63.75907526725016,-8.543249918300631"/><text text-anchor="middle" pointer-events="none" font-size="8px" fill="#000000" x="45.871936384796115" y="-6.520206489661959" font-family="sans-serif">WROTE</text></g><g class="relationship" transform="translate(120.07433351521392 95.90457852757167) rotate(444.1124819844738)"><path class="outline" fill="#A5ABB6" stroke="none" d="M 25 0.5 L 27.147181958407714 0.5 L 27.147181958407714 -0.5 L 25 -0.5 Z M 60.260463208407714 0.5 L 62.40764516681543 0.5 L 62.40764516681543 3.5 L 69.40764516681543 0 L 62.40764516681543 -3.5 L 62.40764516681543 -0.5 L 60.260463208407714 -0.5 Z"/><text text-anchor="middle" pointer-events="none" font-size="8px" fill="#000000" x="43.703822583407714" y="3" font-family="sans-serif">DIRE…</text></g><g class="relationship" transform="translate(120.07433351521392 95.90457852757167) rotate(242.59034678747093)"><path class="outline" fill="#A5ABB6" stroke="none" d="M 25 0.5 L 37.44455760920229 0.5 L 37.44455760920229 -0.5 L 25 -0.5 Z M 84.33518260920229 0.5 L 96.77974021840458 0.5 L 96.77974021840458 3.5 L 103.77974021840458 0 L 96.77974021840458 -3.5 L 96.77974021840458 -0.5 L 84.33518260920229 -0.5 Z"/><text text-anchor="middle" pointer-events="none" font-size="8px" fill="#000000" x="60.88987010920229" y="3" transform="rotate(180 60.88987010920229 0)" font-family="sans-serif">DIRECTED</text></g><g class="relationship" transform="translate(120.07433351521392 95.90457852757167) rotate(183.93021235877688)"><path class="outline" fill="#A5ABB6" stroke="none" d="M 25 0.5 L 43.86171325572465 0.5 L 43.86171325572465 -0.5 L 25 -0.5 Z M 90.75233825572465 0.5 L 109.6140515114493 0.5 L 109.6140515114493 3.5 L 116.6140515114493 0 L 109.6140515114493 -3.5 L 109.6140515114493 -0.5 L 90.75233825572465 -0.5 Z"/><text text-anchor="middle" pointer-events="none" font-size="8px" fill="#000000" x="67.30702575572465" y="3" transform="rotate(180 67.30702575572465 0)" font-family="sans-serif">DIRECTED</text></g><g class="relationship" transform="translate(120.07433351521392 95.90457852757167) rotate(497.9381921510302)"><path class="outline" fill="#A5ABB6" stroke="none" d="M 25 0.5 L 34.09097532812808 0.5 L 34.09097532812808 -0.5 L 25 -0.5 Z M 80.98160032812808 0.5 L 90.07257565625616 0.5 L 90.07257565625616 3.5 L 97.07257565625616 0 L 90.07257565625616 -3.5 L 90.07257565625616 -0.5 L 80.98160032812808 -0.5 Z"/><text text-anchor="middle" pointer-events="none" font-size="8px" fill="#000000" x="57.53628782812808" y="3" transform="rotate(180 57.53628782812808 0)" font-family="sans-serif">DIRECTED</text></g><g class="relationship" transform="translate(62.78431774908812 78.2769386989196) rotate(325.82187230965184)"><path class="outline" fill="#A5ABB6" stroke="none" d="M 24.018736134675446,6.953439040707552 L 24.277555179777966,5.987513214418485 A 140.7114072369049 140.7114072369049 0 0 0 33.13608573466798,8.05671611429608 L 32.94022200163889,9.037347236626943 A 141.7114072369049 141.7114072369049 0 0 1 24.018736134675446,6.953439040707552 Z M 84.60925321850296,9.749991606628555 L 84.44050952701832,8.764331641638535 A 140.7114072369049 140.7114072369049 0 0 0 93.35273840555737,6.940231685683644 L 92.65649653410674,4.022142026944744 L 100.27765458785657,5.8020155954219765 L 94.28106090082488,10.831017897335512 L 93.58481902937424,7.912928238596612 A 141.7114072369049 141.7114072369049 0 0 1 84.60925321850296,9.749991606628555"/><text text-anchor="middle" pointer-events="none" font-size="8px" fill="#000000" x="58.74887615981699" y="14.26870855297014" font-family="sans-serif">PRODUCED</text></g><g class="relationship" transform="translate(62.78431774908812 78.2769386989196) rotate(325.82187230965184)"><path class="outline" fill="#A5ABB6" stroke="none" d="M 24.018736134675446,-6.953439040707552 L 24.277555179777966,-5.987513214418485 A 140.7114072369049 140.7114072369049 0 0 1 40.99724598129099,-9.396412449975998 L 40.85724950452057,-10.38656445168678 A 141.7114072369049 141.7114072369049 0 0 0 24.018736134675446,-6.953439040707552 Z M 76.65802625779916,-10.8803461502022 L 76.5453911542944,-9.886709731053571 A 140.7114072369049 140.7114072369049 0 0 1 93.35273840555737,-6.940231685683644 L 92.65649653410674,-4.022142026944744 L 100.27765458785657,-5.8020155954219765 L 94.28106090082488,-10.831017897335512 L 93.58481902937424,-7.912928238596612 A 141.7114072369049 141.7114072369049 0 0 0 76.65802625779916,-10.8803461502022"/><text text-anchor="middle" pointer-events="none" font-size="8px" fill="#000000" x="58.74887615981694" y="-8.26870855297014" font-family="sans-serif">WROTE</text></g><g class="relationship" transform="translate(62.78431774908812 78.2769386989196) rotate(419.0167658541245)"><path class="outline" fill="#A5ABB6" stroke="none" d="M 25 0.5 L 38.10482391011065 0.5 L 38.10482391011065 -0.5 L 25 -0.5 Z M 84.99544891011065 0.5 L 98.1002728202213 0.5 L 98.1002728202213 3.5 L 105.1002728202213 0 L 98.1002728202213 -3.5 L 98.1002728202213 -0.5 L 84.99544891011065 -0.5 Z"/><text text-anchor="middle" pointer-events="none" font-size="8px" fill="#000000" x="61.55013641011065" y="3" font-family="sans-serif">DIRECTED</text></g><g class="relationship" transform="translate(62.78431774908812 78.2769386989196) rotate(268.8188446011869)"><path class="outline" fill="#A5ABB6" stroke="none" d="M 25 0.5 L 25.4124668485465 0.5 L 25.4124668485465 -0.5 L 25 -0.5 Z M 64.3030918485465 0.5 L 64.715558697093 0.5 L 64.715558697093 3.5 L 71.715558697093 0 L 64.715558697093 -3.5 L 64.715558697093 -0.5 L 64.3030918485465 -0.5 Z"/><text text-anchor="middle" pointer-events="none" font-size="8px" fill="#000000" x="44.8577793485465" y="3" transform="rotate(180 44.8577793485465 0)" font-family="sans-serif">DIREC…</text></g><g class="relationship" transform="translate(62.78431774908812 78.2769386989196) rotate(534.6123513658287)"><path class="outline" fill="#A5ABB6" stroke="none" d="M 25 0.5 L 27.681849009470312 0.5 L 27.681849009470312 -0.5 L 25 -0.5 Z M 49.68184900947031 0.5 L 52.363698018940624 0.5 L 52.363698018940624 3.5 L 59.363698018940624 0 L 52.363698018940624 -3.5 L 52.363698018940624 -0.5 L 49.68184900947031 -0.5 Z"/><text text-anchor="middle" pointer-events="none" font-size="8px" fill="#000000" x="38.68184900947031" y="3" transform="rotate(180 38.68184900947031 0)" font-family="sans-serif">DI…</text></g><g class="relationship" transform="translate(62.78431774908812 78.2769386989196) rotate(468.54041288627263)"><path class="outline" fill="#A5ABB6" stroke="none" d="M 25 0.5 L 25.479532535327564 0.5 L 25.479532535327564 -0.5 L 25 -0.5 Z M 72.37015753532756 0.5 L 72.84969007065513 0.5 L 72.84969007065513 3.5 L 79.84969007065513 0 L 72.84969007065513 -3.5 L 72.84969007065513 -0.5 L 72.37015753532756 -0.5 Z"/><text text-anchor="middle" pointer-events="none" font-size="8px" fill="#000000" x="48.924845035327564" y="3" transform="rotate(180 48.924845035327564 0)" font-family="sans-serif">DIRECTED</text></g><g class="relationship" transform="translate(266.9055260406675 -33.07643443530215) rotate(517.739519952985)"><path class="outline" fill="#A5ABB6" stroke="none" d="M 25 0.5 L 27.645428552527925 0.5 L 27.645428552527925 -0.5 L 25 -0.5 Z M 74.53605355252793 0.5 L 77.18148210505585 0.5 L 77.18148210505585 3.5 L 84.18148210505585 0 L 77.18148210505585 -3.5 L 77.18148210505585 -0.5 L 74.53605355252793 -0.5 Z"/><text text-anchor="middle" pointer-events="none" font-size="8px" fill="#000000" x="51.090741052527925" y="3" transform="rotate(180 51.090741052527925 0)" font-family="sans-serif">DIRECTED</text></g></g><g class="layer nodes"><g class="node" transform="translate(129.7582767018934,189.8142410245719)"><circle class="outline" cx="0" cy="0" r="25" fill="#F79767" stroke="#f36924" stroke-width="2px"/><text text-anchor="middle" pointer-events="none" font-family="sans-serif" dy="1.5625" font-size="25" fill="#FFFFFF"/><text text-anchor="middle" pointer-events="none" font-family="sans-serif" dy="1.5625" font-size="25" fill="#FFFFFF"/><text text-anchor="middle" pointer-events="none" x="0" y="0" font-size="10px" fill="#FFFFFF" font-family="sans-serif"> Cloud</text><text text-anchor="middle" pointer-events="none" x="0" y="10" font-size="10px" fill="#FFFFFF" font-family="sans-serif"> Atlas</text></g><g class="node" transform="translate(195.82044205836323,277.989159502626)"><circle class="outline" cx="0" cy="0" r="25" fill="#57C7E3" stroke="#23b3d7" stroke-width="2px"/><text text-anchor="middle" pointer-events="none" font-family="sans-serif" dy="1.5625" font-size="25" fill="#2A2C34"/><text text-anchor="middle" pointer-events="none" font-family="sans-serif" dy="1.5625" font-size="25" fill="#2A2C34"/><text text-anchor="middle" pointer-events="none" x="0" y="0" font-size="10px" fill="#2A2C34" font-family="sans-serif"> Tom</text><text text-anchor="middle" pointer-events="none" x="0" y="10" font-size="10px" fill="#2A2C34" font-family="sans-serif"> Tykwer</text></g><g class="node" transform="translate(120.07433351521392,95.90457852757167)"><circle class="outline" cx="0" cy="0" r="25" fill="#57C7E3" stroke="#23b3d7" stroke-width="2px"/><text text-anchor="middle" pointer-events="none" font-family="sans-serif" dy="1.5625" font-size="25" fill="#2A2C34"/><text text-anchor="middle" pointer-events="none" font-family="sans-serif" dy="1.5625" font-size="25" fill="#2A2C34"/><text text-anchor="middle" pointer-events="none" x="0" y="0" font-size="10px" fill="#2A2C34" font-family="sans-serif"> Lana</text><text text-anchor="middle" pointer-events="none" x="0" y="10" font-size="10px" fill="#2A2C34" font-family="sans-serif"> Wacho…</text></g><g class="node" transform="translate(62.78431774908812,78.2769386989196)"><circle class="outline" cx="0" cy="0" r="25" fill="#57C7E3" stroke="#23b3d7" stroke-width="2px"/><text text-anchor="middle" pointer-events="none" font-family="sans-serif" dy="1.5625" font-size="25" fill="#2A2C34"/><text text-anchor="middle" pointer-events="none" font-family="sans-serif" dy="1.5625" font-size="25" fill="#2A2C34"/><text text-anchor="middle" pointer-events="none" x="0" y="0" font-size="10px" fill="#2A2C34" font-family="sans-serif"> Lilly</text><text text-anchor="middle" pointer-events="none" x="0" y="10" font-size="10px" fill="#2A2C34" font-family="sans-serif"> Wacho…</text></g><g class="node" transform="translate(165.86120556760415,8.283465646703595)"><circle class="outline" cx="0" cy="0" r="25" fill="#F79767" stroke="#f36924" stroke-width="2px"/><text text-anchor="middle" pointer-events="none" font-family="sans-serif" dy="1.5625" font-size="25" fill="#FFFFFF"/><text text-anchor="middle" pointer-events="none" font-family="sans-serif" dy="1.5625" font-size="25" fill="#FFFFFF"/><text text-anchor="middle" pointer-events="none" x="0" y="0" font-size="10px" fill="#FFFFFF" font-family="sans-serif"> V for</text><text text-anchor="middle" pointer-events="none" x="0" y="10" font-size="10px" fill="#FFFFFF" font-family="sans-serif"> Vendetta</text></g><g class="node" transform="translate(266.9055260406675,-33.07643443530215)"><circle class="outline" cx="0" cy="0" r="25" fill="#57C7E3" stroke="#23b3d7" stroke-width="2px"/><text text-anchor="middle" pointer-events="none" font-family="sans-serif" dy="1.5625" font-size="25" fill="#2A2C34"/><text text-anchor="middle" pointer-events="none" font-family="sans-serif" dy="1.5625" font-size="25" fill="#2A2C34"/><text text-anchor="middle" pointer-events="none" x="0" y="0" font-size="10px" fill="#2A2C34" font-family="sans-serif"> James</text><text text-anchor="middle" pointer-events="none" x="0" y="10" font-size="10px" fill="#2A2C34" font-family="sans-serif"> Marshall</text></g><g class="node" transform="translate(60.79066282201128,-18.4180696216891)"><circle class="outline" cx="0" cy="0" r="25" fill="#F79767" stroke="#f36924" stroke-width="2px"/><text text-anchor="middle" pointer-events="none" font-family="sans-serif" dy="1.5625" font-size="25" fill="#FFFFFF"/><text text-anchor="middle" pointer-events="none" font-family="sans-serif" dy="1.5625" font-size="25" fill="#FFFFFF"/><text text-anchor="middle" pointer-events="none" font-family="sans-serif" dy="1.5625" font-size="25" fill="#FFFFFF"/><text text-anchor="middle" pointer-events="none" x="0" y="-5" font-size="10px" fill="#FFFFFF" font-family="sans-serif"> The</text><text text-anchor="middle" pointer-events="none" x="0" y="5" font-size="10px" fill="#FFFFFF" font-family="sans-serif"> Matrix</text><text text-anchor="middle" pointer-events="none" x="0" y="15" font-size="10px" fill="#FFFFFF" font-family="sans-serif"> Revol…</text></g><g class="node" transform="translate(-21.20668073651666,86.19815810139436)"><circle class="outline" cx="0" cy="0" r="25" fill="#F79767" stroke="#f36924" stroke-width="2px"/><text text-anchor="middle" pointer-events="none" font-family="sans-serif" dy="1.5625" font-size="25" fill="#FFFFFF"/><text text-anchor="middle" pointer-events="none" font-family="sans-serif" dy="1.5625" font-size="25" fill="#FFFFFF"/><text text-anchor="middle" pointer-events="none" font-family="sans-serif" dy="1.5625" font-size="25" fill="#FFFFFF"/><text text-anchor="middle" pointer-events="none" x="0" y="-5" font-size="10px" fill="#FFFFFF" font-family="sans-serif"> The</text><text text-anchor="middle" pointer-events="none" x="0" y="5" font-size="10px" fill="#FFFFFF" font-family="sans-serif"> Matrix</text><text text-anchor="middle" pointer-events="none" x="0" y="15" font-size="10px" fill="#FFFFFF" font-family="sans-serif"> Reloa…</text></g><g class="node" transform="translate(29.444898382037174,177.68488920681582)"><circle class="outline" cx="0" cy="0" r="25" fill="#F79767" stroke="#f36924" stroke-width="2px"/><text text-anchor="middle" pointer-events="none" font-family="sans-serif" dy="1.5625" font-size="25" fill="#FFFFFF"/><text text-anchor="middle" pointer-events="none" font-family="sans-serif" dy="1.5625" font-size="25" fill="#FFFFFF"/><text text-anchor="middle" pointer-events="none" x="0" y="0" font-size="10px" fill="#FFFFFF" font-family="sans-serif"> The</text><text text-anchor="middle" pointer-events="none" x="0" y="10" font-size="10px" fill="#FFFFFF" font-family="sans-serif"> Matrix</text></g></g></svg>